<?xml version="1.0" encoding="utf-8"?>
<!-- Generator: Adobe Illustrator 23.0.1, SVG Export Plug-In . SVG Version: 6.00 Build 0)  -->
<svg version="1.1" id="Layer_1" xmlns="http://www.w3.org/2000/svg" xmlns:xlink="http://www.w3.org/1999/xlink" x="0px" y="0px"
	 viewBox="0 0 256 256" style="enable-background:new 0 0 256 256;" xml:space="preserve">
<style type="text/css">
	.st0{fill:url(#BG_TR_1_);}
	.st1{fill:#FFFFFF;}
</style>
<g>
	<linearGradient id="BG_TR_1_" gradientUnits="userSpaceOnUse" x1="256" y1="256" x2="0.5564" y2="0.5564">
		<stop  offset="0" style="stop-color:#400D9A"/>
		<stop  offset="1" style="stop-color:#8719CB"/>
	</linearGradient>
	<rect id="BG_TR_14_" class="st0" width="256" height="256"/>
	<g>
		<path class="st1" d="M81.5,191.76c-5.48,0-9.84-1.55-13.08-4.64c-3.24-3.1-4.86-7.03-4.86-11.79V149.3c0-3.97-0.26-6.95-0.78-8.94
			c-0.52-1.99-1.42-3.52-2.7-4.61c-1.28-1.09-3.33-2.15-6.18-3.2v-8.97c2.84-1.05,4.9-2.12,6.18-3.23c1.28-1.11,2.18-2.66,2.7-4.64
			c0.52-1.99,0.78-4.99,0.78-9V80.74c0-4.81,1.62-8.76,4.86-11.85c3.24-3.09,7.6-4.64,13.08-4.64h7.09v10.98h-4.14
			c-2.01,0-3.58,0.67-4.71,2.01c-1.13,1.34-1.69,3.28-1.69,5.83v24.02c0,2.22-0.09,4.12-0.28,5.71c-0.19,1.59-0.56,3.21-1.13,4.86
			c-0.56,1.65-1.36,3.07-2.38,4.27c-1.02,1.19-2.39,2.32-4.11,3.39c-1.71,1.07-3.78,1.98-6.21,2.73c2.43,0.75,4.5,1.66,6.21,2.73
			c1.71,1.07,3.08,2.19,4.11,3.39c1.03,1.19,1.82,2.61,2.38,4.27c0.57,1.65,0.94,3.27,1.13,4.86c0.19,1.59,0.28,3.47,0.28,5.65
			v24.27c0,2.63,0.5,4.56,1.5,5.77c1,1.21,2.64,1.82,4.89,1.82h4.14v10.98H81.5z"/>
		<path class="st1" d="M141.95,64.24h15.62v96.35h-14.87l-0.44-9.53c-1.84,3.43-4.61,6.12-8.31,8.06c-3.7,1.95-7.85,2.92-12.45,2.92
			c-4.14,0-8.05-0.77-11.73-2.32c-3.68-1.55-6.89-3.72-9.63-6.52c-2.74-2.8-4.91-6.29-6.52-10.47c-1.61-4.18-2.42-8.78-2.42-13.8
			c0-5.02,0.81-9.62,2.42-13.8c1.61-4.18,3.79-7.67,6.56-10.48c2.76-2.8,5.97-4.98,9.63-6.52c3.66-1.55,7.56-2.32,11.7-2.32
			c4.43,0,8.48,0.91,12.14,2.73c3.66,1.82,6.43,4.36,8.31,7.62V64.24z M112.07,143.43c3.45,3.66,7.77,5.49,12.95,5.49
			c5.18,0,9.5-1.87,12.95-5.61c3.45-3.74,5.18-8.54,5.18-14.4c0-5.85-1.74-10.65-5.21-14.39c-3.47-3.74-7.78-5.61-12.92-5.61
			c-5.19,0-9.5,1.83-12.95,5.49c-3.45,3.66-5.18,8.5-5.18,14.52C106.89,134.93,108.62,139.77,112.07,143.43z"/>
		<path class="st1" d="M174.49,191.76h-7.09v-10.98h4.14c2.26,0,3.89-0.61,4.89-1.82c1-1.21,1.51-3.14,1.51-5.77v-24.27
			c0-2.17,0.09-4.06,0.28-5.65c0.19-1.59,0.57-3.21,1.13-4.86c0.56-1.65,1.36-3.07,2.38-4.27s2.39-2.32,4.11-3.39
			c1.71-1.07,3.78-1.98,6.21-2.73c-2.43-0.75-4.5-1.66-6.21-2.73c-1.71-1.07-3.09-2.2-4.11-3.39c-1.02-1.19-1.82-2.61-2.38-4.27
			c-0.56-1.65-0.94-3.27-1.13-4.86c-0.19-1.59-0.28-3.49-0.28-5.71V83.06c0-2.55-0.57-4.5-1.69-5.83c-1.13-1.34-2.7-2.01-4.7-2.01
			h-4.14V64.24h7.09c5.48,0,9.84,1.55,13.08,4.64c3.24,3.1,4.86,7.05,4.86,11.85v25.97c0,4.01,0.26,7.02,0.79,9
			c0.52,1.99,1.42,3.54,2.7,4.64c1.28,1.11,3.33,2.18,6.18,3.23v8.97c-2.85,1.05-4.9,2.11-6.18,3.2s-2.17,2.62-2.7,4.61
			c-0.52,1.99-0.79,4.97-0.79,8.94v26.03c0,4.77-1.62,8.7-4.86,11.79C184.33,190.21,179.97,191.76,174.49,191.76z"/>
	</g>
</g>
</svg>
