<?xml version="1.0" encoding="utf-8"?>
<!-- Generator: Adobe Illustrator 23.0.1, SVG Export Plug-In . SVG Version: 6.00 Build 0)  -->
<svg version="1.1" id="Layer_1" xmlns="http://www.w3.org/2000/svg" xmlns:xlink="http://www.w3.org/1999/xlink" x="0px" y="0px"
	 viewBox="0 0 623.51 94.46" style="enable-background:new 0 0 623.51 94.46;" xml:space="preserve">
<style type="text/css">
	.st0{fill:#FFFFFF;}
</style>
<g>
	<path class="st0" d="M98.76,93.06H84.4l-5.7-68.22L53.92,93.06h-9.09l-24.66-68.1l-5.76,68.1H0l6.91-86.4h20.18l22.24,61.07
		L71.74,6.67h20.18L98.76,93.06z"/>
	<path class="st0" d="M134.51,80.1h28.54v12.97h-43.02V6.67h14.48V80.1z"/>
	<path class="st0" d="M202.97,94.21c-9.41,0-17.11-2.86-23.08-8.57c-5.98-5.71-8.97-13.42-8.97-23.11c0-9.61,2.99-17.28,8.97-22.99
		c5.98-5.71,13.67-8.57,23.08-8.57c9.45,0,17.17,2.85,23.14,8.54c5.98,5.7,8.97,13.37,8.97,23.02c0,9.69-2.99,17.4-8.97,23.11
		C220.14,91.36,212.42,94.21,202.97,94.21z M202.85,82.95c5.37,0,9.77-1.88,13.21-5.63c3.43-3.76,5.15-8.68,5.15-14.78
		c0-6.1-1.72-11.02-5.15-14.75c-3.43-3.74-7.84-5.6-13.21-5.6c-5.25,0-9.57,1.87-12.97,5.6s-5.09,8.65-5.09,14.75
		c0,6.1,1.69,11.03,5.06,14.78C193.22,81.07,197.56,82.95,202.85,82.95z"/>
	<path class="st0" d="M282.22,30.96c6.87,0,12.24,1.83,16.12,5.48c3.88,3.66,5.82,8.86,5.82,15.6v41.02H290.1V55.08
		c0-4.32-1.12-7.52-3.36-9.6c-2.24-2.08-5.12-3.12-8.63-3.12c-4.2,0-7.63,1.28-10.3,3.85c-2.67,2.57-4.02,6.51-4.06,11.85v35.02
		H249.8V32.11h13.94v7.21c2.06-2.67,4.67-4.73,7.85-6.18C274.76,31.69,278.3,30.96,282.22,30.96z"/>
	<path class="st0" d="M362.8,94.21c-6.18,0-11.95-1.04-17.3-3.12c-5.35-2.08-9.97-5-13.84-8.75c-3.88-3.76-6.93-8.43-9.15-14.03
		c-2.22-5.59-3.33-11.76-3.33-18.51c0-8.93,1.91-16.77,5.73-23.54c3.82-6.77,9.02-11.93,15.6-15.48c6.58-3.55,14.02-5.33,22.3-5.33
		c9.09,0,17.15,2.18,24.17,6.54s12.16,10.4,15.39,18.12l-13.51,5.15c-2.22-5.13-5.65-9.13-10.27-12c-4.63-2.87-9.89-4.3-15.78-4.3
		c-4.08,0-7.9,0.71-11.45,2.12c-3.56,1.41-6.65,3.41-9.27,6c-2.63,2.59-4.69,5.83-6.18,9.72c-1.49,3.9-2.24,8.23-2.24,13
		c0,4.77,0.75,9.12,2.24,13.06c1.49,3.94,3.55,7.2,6.18,9.79c2.62,2.58,5.71,4.57,9.27,5.97c3.55,1.39,7.37,2.09,11.45,2.09
		c5.94,0,11.21-1.42,15.81-4.27c4.6-2.85,8.02-6.84,10.24-11.97l13.51,5.15c-3.23,7.71-8.35,13.74-15.36,18.08
		C380,92.04,371.93,94.21,362.8,94.21z"/>
	<path class="st0" d="M443.62,94.21c-9.41,0-17.11-2.86-23.08-8.57c-5.98-5.71-8.97-13.42-8.97-23.11c0-9.61,2.99-17.28,8.97-22.99
		c5.98-5.71,13.67-8.57,23.08-8.57c9.45,0,17.17,2.85,23.14,8.54s8.97,13.37,8.97,23.02c0,9.69-2.99,17.4-8.97,23.11
		C460.79,91.36,453.08,94.21,443.62,94.21z M443.5,82.95c5.37,0,9.78-1.88,13.21-5.63c3.43-3.76,5.15-8.68,5.15-14.78
		c0-6.1-1.72-11.02-5.15-14.75c-3.43-3.74-7.84-5.6-13.21-5.6c-5.25,0-9.57,1.87-12.96,5.6c-3.39,3.74-5.09,8.65-5.09,14.75
		c0,6.1,1.69,11.03,5.06,14.78S438.21,82.95,443.5,82.95z"/>
	<path class="st0" d="M534.51,0h13.94v93.06h-13.33l-0.36-9.69c-1.82,3.43-4.54,6.14-8.15,8.12c-3.62,1.98-7.66,2.97-12.15,2.97
		c-3.96,0-7.69-0.75-11.18-2.24c-3.49-1.49-6.55-3.58-9.18-6.27c-2.63-2.69-4.71-6.04-6.24-10.06c-1.54-4.02-2.3-8.43-2.3-13.24
		c0-4.77,0.77-9.15,2.3-13.15c1.53-4,3.61-7.34,6.24-10.03c2.63-2.69,5.7-4.78,9.21-6.27c3.51-1.49,7.23-2.24,11.15-2.24
		c4.36,0,8.33,0.94,11.91,2.82c3.57,1.88,6.29,4.45,8.15,7.72V0z M504.67,77.13c3.45,3.68,7.74,5.51,12.88,5.51
		c5.13,0,9.41-1.88,12.84-5.63c3.43-3.76,5.15-8.54,5.15-14.36c0-5.78-1.73-10.54-5.18-14.3c-3.45-3.76-7.73-5.63-12.81-5.63
		c-5.13,0-9.42,1.83-12.88,5.48c-3.45,3.66-5.18,8.47-5.18,14.45C499.49,68.63,501.21,73.45,504.67,77.13z"/>
	<path class="st0" d="M623.51,61.56l-0.18,3.51h-46.35c0.24,5.82,2.02,10.26,5.33,13.33c3.31,3.07,7.41,4.6,12.3,4.6
		c3.39,0,6.41-0.83,9.06-2.48c2.65-1.66,4.66-4.02,6.03-7.09l12.72,2.18c-2.1,5.86-5.62,10.42-10.54,13.69
		c-4.93,3.27-10.64,4.91-17.15,4.91c-9.49,0-17.11-2.81-22.84-8.42c-5.74-5.61-8.6-13.35-8.6-23.21c0-9.82,2.87-17.55,8.6-23.21
		s13.21-8.48,22.42-8.48c8.76,0,15.81,2.6,21.15,7.79C620.78,43.88,623.47,51.5,623.51,61.56z M594.37,41.26c-4.4,0-8.07,1.1-11,3.3
		c-2.93,2.2-4.86,5.56-5.79,10.09h31.93c-0.53-4.4-2.14-7.73-4.85-10C601.96,42.39,598.53,41.26,594.37,41.26z"/>
</g>
</svg>
