<?xml version="1.0" encoding="utf-8"?>
<!-- Generator: Adobe Illustrator 23.0.3, SVG Export Plug-In . SVG Version: 6.00 Build 0)  -->
<svg version="1.1" id="Layer_1" xmlns="http://www.w3.org/2000/svg" xmlns:xlink="http://www.w3.org/1999/xlink" x="0px" y="0px"
	 viewBox="0 0 685.27 103.61" style="enable-background:new 0 0 685.27 103.61;" xml:space="preserve">
<style type="text/css">
	.st0{fill:#8719CB;}
	.st1{fill:#400D9A;}
	.st2{fill:#00B491;}
</style>
<g>
	<path class="st0" d="M303.03,100.38c-3.92,0-7.04-1.11-9.35-3.32c-2.32-2.21-3.48-5.02-3.48-8.43V70.01c0-2.84-0.19-4.97-0.56-6.39
		c-0.37-1.42-1.02-2.52-1.93-3.3c-0.91-0.78-2.39-1.54-4.42-2.29v-6.42c2.03-0.75,3.51-1.52,4.42-2.31c0.91-0.79,1.56-1.9,1.93-3.32
		c0.37-1.42,0.56-3.57,0.56-6.44V20.97c0-3.44,1.16-6.26,3.48-8.48c2.32-2.21,5.44-3.32,9.35-3.32h5.07v7.85h-2.96
		c-1.44,0-2.56,0.48-3.36,1.44c-0.81,0.96-1.21,2.35-1.21,4.17v17.18c0,1.59-0.07,2.95-0.2,4.08c-0.13,1.14-0.4,2.3-0.81,3.48
		c-0.4,1.18-0.97,2.2-1.71,3.05s-1.71,1.66-2.94,2.42c-1.23,0.76-2.71,1.41-4.44,1.95c1.73,0.54,3.21,1.19,4.44,1.95
		c1.23,0.76,2.21,1.57,2.94,2.42s1.3,1.87,1.71,3.05s0.67,2.34,0.81,3.48c0.13,1.14,0.2,2.48,0.2,4.04V87.1
		c0,1.88,0.36,3.26,1.08,4.13c0.72,0.87,1.88,1.3,3.5,1.3h2.96v7.85H303.03z"/>
	<path class="st0" d="M346.26,9.17h11.17v68.91H346.8l-0.31-6.82c-1.32,2.45-3.3,4.37-5.94,5.76c-2.65,1.39-5.62,2.09-8.91,2.09
		c-2.96,0-5.76-0.55-8.39-1.66c-2.63-1.11-4.93-2.66-6.89-4.67c-1.96-2-3.51-4.5-4.67-7.49c-1.15-2.99-1.73-6.28-1.73-9.87
		s0.58-6.88,1.73-9.87c1.15-2.99,2.71-5.49,4.69-7.49c1.97-2,4.27-3.56,6.89-4.67c2.62-1.11,5.41-1.66,8.37-1.66
		c3.17,0,6.06,0.65,8.68,1.95c2.62,1.3,4.6,3.12,5.94,5.45V9.17z M324.88,65.81c2.47,2.62,5.56,3.93,9.26,3.93
		c3.71,0,6.8-1.34,9.26-4.02c2.47-2.68,3.7-6.11,3.7-10.3c0-4.19-1.24-7.62-3.72-10.29c-2.48-2.68-5.56-4.02-9.24-4.02
		c-3.71,0-6.8,1.31-9.26,3.93s-3.7,6.08-3.7,10.38S322.42,63.2,324.88,65.81z"/>
	<path class="st0" d="M369.53,100.38h-5.07v-7.85h2.96c1.62,0,2.78-0.43,3.5-1.3c0.72-0.87,1.08-2.24,1.08-4.13V69.74
		c0-1.55,0.07-2.9,0.2-4.04c0.13-1.14,0.4-2.29,0.81-3.48s0.97-2.2,1.7-3.05s1.71-1.66,2.94-2.42c1.23-0.76,2.71-1.41,4.44-1.95
		c-1.74-0.54-3.22-1.19-4.44-1.95c-1.23-0.76-2.21-1.57-2.94-2.42s-1.3-1.87-1.7-3.05c-0.4-1.18-0.67-2.34-0.81-3.48
		c-0.13-1.14-0.2-2.5-0.2-4.08V22.63c0-1.82-0.4-3.21-1.21-4.17s-1.93-1.44-3.36-1.44h-2.96V9.17h5.07c3.92,0,7.04,1.11,9.35,3.32
		c2.32,2.21,3.48,5.04,3.48,8.48v18.57c0,2.87,0.19,5.02,0.56,6.44c0.37,1.42,1.02,2.53,1.93,3.32c0.91,0.79,2.38,1.56,4.42,2.31
		v6.42c-2.04,0.75-3.51,1.51-4.42,2.29s-1.55,1.88-1.93,3.3c-0.38,1.42-0.56,3.55-0.56,6.39v18.62c0,3.41-1.16,6.22-3.48,8.43
		C376.57,99.27,373.45,100.38,369.53,100.38z"/>
</g>
<g>
	<path class="st1" d="M22.57,78.98c-5.17,0-9.48-1.08-12.92-3.23c-3.44-2.15-5.55-5.29-6.33-9.42l9.47-2.69
		c0.6,2.48,1.75,4.33,3.45,5.54c1.7,1.21,3.81,1.82,6.33,1.82c2.06,0,3.81-0.42,5.23-1.26c1.42-0.84,2.12-2.2,2.09-4.08
		c-0.03-0.96-0.28-1.79-0.74-2.49c-0.46-0.7-1.22-1.31-2.27-1.82c-1.05-0.51-2.03-0.92-2.96-1.23c-0.93-0.31-2.26-0.72-3.99-1.21
		c-1.73-0.49-3.13-0.92-4.17-1.28c-1.29-0.42-2.42-0.84-3.39-1.26c-0.97-0.42-1.98-0.98-3.03-1.68c-1.05-0.7-1.9-1.47-2.56-2.31
		c-0.66-0.84-1.2-1.88-1.64-3.12c-0.43-1.24-0.65-2.61-0.65-4.1c0-4.4,1.6-7.72,4.8-9.98c3.2-2.26,7.34-3.39,12.43-3.39
		c4.64,0,8.52,0.98,11.66,2.94c3.14,1.96,5.1,4.97,5.88,9.04l-8.75,2.02c-1.17-4.25-4.08-6.37-8.75-6.37c-1.97,0-3.63,0.4-4.98,1.21
		c-1.35,0.81-2.02,2-2.02,3.59c0,0.45,0.05,0.86,0.16,1.23c0.1,0.37,0.3,0.73,0.58,1.05c0.28,0.33,0.56,0.61,0.83,0.85
		s0.66,0.49,1.17,0.74c0.51,0.25,0.94,0.46,1.3,0.61s0.9,0.33,1.62,0.54c0.72,0.21,1.28,0.37,1.68,0.47
		c0.4,0.11,1.02,0.26,1.86,0.47c0.84,0.21,1.46,0.37,1.88,0.49c1.67,0.45,3.1,0.88,4.28,1.3c1.18,0.42,2.49,1.02,3.93,1.79
		s2.59,1.64,3.45,2.58c0.87,0.94,1.61,2.16,2.22,3.66c0.61,1.5,0.92,3.17,0.92,5.02c0,1.97-0.32,3.75-0.96,5.34
		c-0.64,1.58-1.53,2.91-2.65,3.97c-1.12,1.06-2.46,1.94-4.02,2.65c-1.56,0.7-3.19,1.21-4.91,1.52
		C26.39,78.82,24.54,78.98,22.57,78.98z"/>
	<path class="st1" d="M87.13,72.59c-4.52,4.26-10.35,6.39-17.5,6.39c-7.15,0-12.98-2.13-17.5-6.39c-4.52-4.26-6.77-10.03-6.77-17.29
		c0-7.21,2.25-12.94,6.75-17.18c4.5-4.25,10.34-6.37,17.52-6.37c7.18,0,13.02,2.12,17.52,6.37c4.5,4.25,6.75,9.97,6.75,17.18
		C93.91,62.56,91.65,68.32,87.13,72.59z M69.5,69.96c3.92,0,7.11-1.35,9.58-4.04c2.47-2.69,3.7-6.24,3.7-10.63
		c0-4.37-1.23-7.9-3.7-10.59c-2.47-2.69-5.66-4.04-9.58-4.04c-3.8,0-6.92,1.35-9.35,4.04c-2.44,2.69-3.66,6.22-3.66,10.59
		c0,4.4,1.22,7.94,3.66,10.63C62.58,68.62,65.7,69.96,69.5,69.96z"/>
	<path class="st1" d="M131.89,32.64h11.22v45.44h-10.63l-0.31-5.61c-1.53,2.09-3.51,3.7-5.94,4.82c-2.44,1.12-5.18,1.68-8.23,1.68
		c-5.23,0-9.29-1.37-12.18-4.11c-2.89-2.74-4.33-6.62-4.33-11.64v-30.6h11.22v28.17c0,3.08,0.81,5.36,2.44,6.84
		c1.63,1.48,3.73,2.22,6.3,2.22c3.05,0,5.55-0.93,7.49-2.78c1.94-1.85,2.93-4.75,2.96-8.7V32.64z"/>
	<path class="st1" d="M165.02,40.08c1.17-2.21,3.12-4.09,5.85-5.63c2.74-1.54,5.69-2.33,8.86-2.35v10.14
		c-4.88,0-8.46,0.98-10.77,2.94c-2.3,1.96-3.45,5.32-3.45,10.07v22.83h-11.26V32.64h10.77V40.08z"/>
	<path class="st1" d="M205.97,78.93c-6.97,0-12.68-2.18-17.14-6.55c-4.46-4.37-6.68-10.06-6.68-17.09s2.23-12.71,6.68-17.05
		c4.46-4.34,10.17-6.5,17.14-6.5c5.59,0,10.33,1.41,14.22,4.24c3.89,2.83,6.42,6.8,7.58,11.91l-10.36,1.26
		c-0.81-2.78-2.22-4.89-4.24-6.33s-4.45-2.15-7.29-2.15c-3.71,0-6.73,1.35-9.06,4.04c-2.33,2.69-3.5,6.22-3.5,10.59
		c0,4.4,1.17,7.93,3.5,10.61c2.33,2.68,5.35,4.01,9.06,4.01c2.84,0,5.27-0.72,7.29-2.15s3.43-3.54,4.24-6.33l10.36,1.26
		c-1.17,5.11-3.72,9.1-7.65,11.96C216.19,77.51,211.47,78.93,205.97,78.93z"/>
	<path class="st1" d="M277.89,54.62l-0.18,2.78h-34.27c0.21,4.07,1.5,7.19,3.86,9.35c2.36,2.17,5.29,3.25,8.79,3.25
		c2.45,0,4.61-0.58,6.48-1.75c1.87-1.17,3.3-2.84,4.28-5.02l10.23,1.66c-1.53,4.43-4.16,7.88-7.9,10.36
		c-3.74,2.48-8.08,3.72-13.01,3.72c-7.21,0-12.96-2.09-17.27-6.28c-4.31-4.19-6.46-9.96-6.46-17.32c0-7.33,2.16-13.11,6.48-17.34
		c4.32-4.23,9.95-6.35,16.89-6.35c3.2,0,6.12,0.47,8.77,1.41c2.65,0.94,4.96,2.33,6.95,4.17c1.99,1.84,3.54,4.23,4.64,7.18
		C277.29,47.4,277.86,50.79,277.89,54.62z M255.86,39.77c-3.23,0-5.89,0.85-7.99,2.54c-2.09,1.69-3.45,4.22-4.08,7.6h22.97
		c-0.3-3.29-1.43-5.8-3.39-7.54C261.42,40.64,258.91,39.77,255.86,39.77z"/>
</g>
<g>
	<path class="st2" d="M469.07,21.24h-26.2v22.74h23.01v5.7h-23.01v22.66h26.2v5.74h-32.66V15.5h32.66V21.24z"/>
	<path class="st2" d="M497.87,33.85c4.34,0,7.85,1.31,10.54,3.93s4.04,6.32,4.04,11.1v29.21h-6.01V50.22c0-3.77-0.94-6.57-2.83-8.41
		c-1.88-1.84-4.29-2.76-7.22-2.76c-3.29,0-5.97,1.06-8.05,3.19c-2.08,2.12-3.12,5.17-3.12,9.15v26.69h-6.06V34.66h6.06v5.88
		C488,36.08,492.22,33.85,497.87,33.85z"/>
	<path class="st2" d="M558.09,34.66h5.92V76.2c0,7.06-1.81,12.58-5.43,16.58c-3.62,3.99-8.64,5.99-15.07,5.99
		c-5.05,0-9.32-1.14-12.79-3.41c-3.47-2.27-6.09-5.55-7.85-9.82l5.02-2.69c2.57,7.12,7.73,10.68,15.48,10.68
		c4.69,0,8.3-1.51,10.81-4.53c2.51-3.02,3.77-7.19,3.77-12.52v-9.24c-1.38,2.9-3.52,5.25-6.44,7.04c-2.92,1.79-6.09,2.69-9.53,2.69
		c-2.69,0-5.26-0.55-7.69-1.64s-4.55-2.58-6.32-4.46c-1.78-1.88-3.2-4.18-4.26-6.89c-1.06-2.71-1.59-5.59-1.59-8.64
		c0-6.16,1.94-11.28,5.83-15.36c3.89-4.08,8.58-6.12,14.09-6.12c3.47,0,6.65,0.89,9.56,2.67c2.9,1.78,5.04,4.15,6.42,7.11
		L558.09,34.66z M543.15,71.62c4.22,0,7.8-1.61,10.77-4.82s4.44-7.04,4.44-11.46c0-4.43-1.48-8.25-4.44-11.46
		c-2.96-3.21-6.55-4.82-10.77-4.82c-4.19,0-7.75,1.56-10.68,4.67c-2.93,3.11-4.4,6.98-4.4,11.62c0,4.61,1.47,8.47,4.42,11.6
		C535.44,70.06,538.99,71.62,543.15,71.62z"/>
	<path class="st2" d="M583.61,21.83c-0.88,0.9-1.94,1.35-3.16,1.35s-2.29-0.45-3.18-1.35s-1.35-1.96-1.35-3.19
		c0-1.26,0.45-2.32,1.35-3.18s1.96-1.3,3.18-1.3s2.28,0.43,3.16,1.3c0.88,0.87,1.32,1.93,1.32,3.18
		C584.94,19.87,584.5,20.93,583.61,21.83z M577.36,78.08V34.66h6.06v43.43H577.36z"/>
	<path class="st2" d="M615.5,33.85c4.34,0,7.85,1.31,10.54,3.93s4.04,6.32,4.04,11.1v29.21h-6.01V50.22c0-3.77-0.94-6.57-2.83-8.41
		c-1.88-1.84-4.29-2.76-7.22-2.76c-3.29,0-5.97,1.06-8.05,3.19c-2.08,2.12-3.12,5.17-3.12,9.15v26.69h-6.06V34.66h6.06v5.88
		C605.63,36.08,609.85,33.85,615.5,33.85z"/>
	<path class="st2" d="M680.6,55.38l-0.13,1.84h-34.54c0.09,5.29,1.56,9.37,4.42,12.22c2.86,2.86,6.41,4.28,10.66,4.28
		c2.81,0,5.39-0.76,7.74-2.29c2.35-1.53,4.17-3.6,5.45-6.24l5.38,1.39c-1.65,3.8-4.11,6.8-7.4,9.02c-3.29,2.21-6.98,3.32-11.08,3.32
		c-6.16,0-11.2-2.03-15.12-6.08c-3.92-4.05-5.88-9.55-5.88-16.49c0-3.47,0.53-6.63,1.59-9.49c1.06-2.86,2.53-5.23,4.4-7.13
		c1.87-1.9,4.08-3.36,6.62-4.4c2.54-1.03,5.29-1.55,8.25-1.55c5.89,0,10.63,1.87,14.22,5.61C678.76,43.15,680.57,48.47,680.6,55.38z
		 M660.96,38.69c-3.92,0-7.22,1.18-9.89,3.54c-2.68,2.36-4.31,5.76-4.91,10.18h28.35c-0.27-4.52-1.62-7.93-4.06-10.25
		C668,39.85,664.84,38.69,660.96,38.69z"/>
</g>
</svg>
