<?xml version="1.0" encoding="utf-8"?>
<!-- Generator: Adobe Illustrator 19.2.1, SVG Export Plug-In . SVG Version: 6.00 Build 0)  -->
<svg version="1.1" id="Layer_1" xmlns="http://www.w3.org/2000/svg" xmlns:xlink="http://www.w3.org/1999/xlink" x="0px" y="0px"
	 viewBox="0 0 398 89.3" style="enable-background:new 0 0 398 89.3;" xml:space="preserve">
<style type="text/css">
	.st0{fill:none;}
	.st1{fill:#FFFFFF;}
	.st2{fill:#DAE6E5;}
</style>
<g transform="matrix(1,0,0,1,-4687.5,0)">
	<g id="Page-2" transform="matrix(4.16667,0,0,4.16667,4687.5,0)">
		<rect x="-25.2" y="-61.7" class="st0" width="146.9" height="146.9"/>
		<g id="Layer-1">
			<path class="st1" d="M7.9,9.6C7.7,9.3,7.4,9,6.9,8.7C6.5,8.5,6,8.4,5.5,8.4c-0.4,0-0.9,0.1-1.2,0.3S3.7,9.2,3.7,9.6
				c0,0.4,0.2,0.7,0.6,0.9c0.4,0.2,1,0.4,1.8,0.5c0.4,0.1,0.8,0.2,1.3,0.4c0.4,0.2,0.8,0.4,1.2,0.6c0.3,0.3,0.6,0.6,0.8,1
				c0.2,0.4,0.3,0.8,0.3,1.4c0,0.7-0.1,1.3-0.4,1.7c-0.3,0.5-0.6,0.9-1,1.1c-0.4,0.3-0.9,0.5-1.5,0.6c-0.6,0.1-1.1,0.2-1.8,0.2
				c-0.9,0-1.7-0.2-2.5-0.5c-0.8-0.3-1.5-0.8-2-1.4l1.8-1.7c0.3,0.4,0.7,0.7,1.2,1c0.5,0.3,1,0.4,1.6,0.4c0.2,0,0.4,0,0.6-0.1
				c0.2,0,0.4-0.1,0.6-0.2c0.2-0.1,0.3-0.2,0.4-0.4C6.9,15.1,7,14.9,7,14.6c0-0.5-0.2-0.8-0.6-1c-0.4-0.2-1.1-0.4-1.9-0.6
				c-0.4-0.1-0.8-0.2-1.2-0.4c-0.4-0.1-0.7-0.3-1.1-0.6c-0.3-0.2-0.6-0.5-0.7-0.9c-0.2-0.4-0.3-0.8-0.3-1.3c0-0.6,0.1-1.2,0.4-1.6
				c0.3-0.4,0.6-0.8,1-1.1C3,6.9,3.4,6.6,4,6.5C4.5,6.4,5,6.3,5.6,6.3c0.8,0,1.6,0.1,2.4,0.4C8.7,7,9.3,7.4,9.8,8L7.9,9.6z"/>
			<path class="st1" d="M6.4,13.5c0.5,0.2,0.7,0.6,0.7,1.1c0,0.3-0.1,0.5-0.2,0.7c-0.1,0.2-0.3,0.3-0.5,0.4
				c-0.2,0.1-0.4,0.2-0.6,0.2C5.6,16,5.4,16,5.2,16c-0.6,0-1.2-0.1-1.7-0.4c-0.5-0.3-0.9-0.6-1.2-1l-1.7,1.6c0.5,0.6,1.2,1,2,1.3
				C3.4,17.9,4.2,18,5.1,18c0.6,0,1.2-0.1,1.7-0.2c0.6-0.1,1-0.3,1.5-0.6c0.4-0.3,0.7-0.7,1-1.1c0.2-0.5,0.4-1,0.4-1.7
				c0-0.5-0.1-1-0.3-1.3c-0.2-0.4-0.5-0.7-0.8-0.9c-0.3-0.2-0.7-0.5-1.1-0.6c-0.4-0.2-0.8-0.3-1.3-0.4c-0.8-0.2-1.4-0.4-1.8-0.5
				c-0.4-0.2-0.7-0.5-0.7-1c0-0.5,0.2-0.8,0.6-1c0.4-0.2,0.8-0.3,1.3-0.3c0.5,0,1,0.1,1.5,0.4c0.4,0.2,0.7,0.5,1,0.8L9.7,8
				c-0.4-0.5-1-0.9-1.7-1.2C7.2,6.5,6.4,6.4,5.6,6.4C5,6.4,4.5,6.4,4,6.6C3.5,6.7,3,6.9,2.6,7.2c-0.4,0.3-0.7,0.6-1,1.1
				c-0.2,0.4-0.4,1-0.4,1.6c0,0.5,0.1,0.9,0.3,1.3c0.2,0.3,0.4,0.6,0.7,0.9c0.3,0.2,0.7,0.4,1,0.6 M5.1,18.2c-0.9,0-1.7-0.2-2.6-0.5
				c-0.8-0.3-1.5-0.8-2.1-1.4l0-0.1l1.9-1.8l0,0.1c0.3,0.4,0.7,0.7,1.2,1c0.5,0.3,1,0.4,1.6,0.4c0.2,0,0.4,0,0.6-0.1
				c0.2,0,0.4-0.1,0.6-0.2c0.2-0.1,0.3-0.2,0.4-0.4c0.1-0.2,0.2-0.4,0.2-0.6c0-0.4-0.2-0.7-0.6-0.9c-0.4-0.2-1.1-0.4-1.9-0.6
				C4,13,3.6,12.9,3.2,12.7c-0.4-0.1-0.8-0.3-1.1-0.6c-0.3-0.2-0.6-0.6-0.8-0.9c-0.2-0.4-0.3-0.8-0.3-1.4c0-0.6,0.1-1.2,0.4-1.6
				c0.3-0.5,0.6-0.8,1-1.1c0.4-0.3,0.9-0.5,1.4-0.6C4.5,6.3,5,6.2,5.6,6.2c0.8,0,1.6,0.1,2.4,0.4C8.7,6.9,9.4,7.4,9.8,8l0,0.1
				L7.9,9.7l0-0.1C7.7,9.3,7.3,9,6.9,8.8C6.5,8.6,6,8.5,5.5,8.5c-0.4,0-0.8,0.1-1.2,0.3C4,8.9,3.8,9.2,3.8,9.6
				c0,0.4,0.2,0.7,0.6,0.8c0.4,0.2,1,0.4,1.8,0.5c0.4,0.1,0.8,0.2,1.3,0.4c0.4,0.2,0.8,0.4,1.2,0.6c0.4,0.3,0.6,0.6,0.9,1
				c0.2,0.4,0.3,0.9,0.3,1.4c0,0.7-0.1,1.3-0.4,1.8c-0.3,0.5-0.6,0.9-1,1.2c-0.4,0.3-0.9,0.5-1.5,0.6C6.3,18.1,5.7,18.2,5.1,18.2"/>
			<path class="st1" d="M13.9,12.1c0,0.4,0.1,0.9,0.2,1.3c0.1,0.4,0.3,0.8,0.6,1.2c0.3,0.3,0.6,0.6,1,0.8c0.4,0.2,0.9,0.3,1.4,0.3
				c0.6,0,1-0.1,1.4-0.3c0.4-0.2,0.7-0.5,1-0.8c0.3-0.3,0.5-0.7,0.6-1.2c0.1-0.4,0.2-0.9,0.2-1.3c0-0.4-0.1-0.9-0.2-1.3
				c-0.1-0.4-0.3-0.8-0.6-1.1c-0.3-0.3-0.6-0.6-1-0.8c-0.4-0.2-0.9-0.3-1.4-0.3c-0.6,0-1,0.1-1.4,0.3c-0.4,0.2-0.7,0.5-1,0.8
				c-0.3,0.3-0.5,0.7-0.6,1.1C14,11.3,13.9,11.7,13.9,12.1 M11.1,12.1c0-0.9,0.2-1.7,0.5-2.4c0.3-0.7,0.7-1.3,1.3-1.8
				C13.4,7.4,14,7,14.7,6.7c0.7-0.3,1.5-0.4,2.4-0.4c0.8,0,1.6,0.1,2.4,0.4c0.7,0.3,1.4,0.7,1.9,1.2c0.5,0.5,1,1.1,1.3,1.8
				c0.3,0.7,0.5,1.5,0.5,2.4c0,0.9-0.2,1.7-0.5,2.4c-0.3,0.7-0.7,1.3-1.3,1.9c-0.5,0.5-1.2,0.9-1.9,1.2c-0.7,0.3-1.5,0.4-2.4,0.4
				c-0.8,0-1.6-0.1-2.4-0.4c-0.7-0.3-1.4-0.7-1.9-1.2c-0.5-0.5-1-1.1-1.3-1.9C11.2,13.8,11.1,13,11.1,12.1"/>
			<path class="st1" d="M17.1,8.6c-0.5,0-1,0.1-1.4,0.3c-0.4,0.2-0.7,0.5-1,0.8c-0.3,0.3-0.5,0.7-0.6,1.1C14,11.3,14,11.7,14,12.1
				c0,0.4,0.1,0.9,0.2,1.3c0.1,0.4,0.3,0.8,0.6,1.1c0.3,0.3,0.6,0.6,1,0.8c0.4,0.2,0.9,0.3,1.4,0.3c0.5,0,1-0.1,1.4-0.3
				c0.4-0.2,0.7-0.5,1-0.8c0.3-0.3,0.5-0.7,0.6-1.1c0.1-0.4,0.2-0.9,0.2-1.3c0-0.4-0.1-0.8-0.2-1.3c-0.1-0.4-0.3-0.8-0.6-1.1
				c-0.3-0.3-0.6-0.6-1-0.8C18.1,8.8,17.7,8.6,17.1,8.6 M17.1,15.8c-0.6,0-1.1-0.1-1.5-0.3c-0.4-0.2-0.8-0.5-1-0.9
				c-0.3-0.3-0.5-0.7-0.6-1.2c-0.1-0.4-0.2-0.9-0.2-1.3c0-0.4,0.1-0.9,0.2-1.3c0.1-0.4,0.3-0.8,0.6-1.2c0.3-0.3,0.6-0.6,1-0.8
				c0.4-0.2,0.9-0.3,1.5-0.3c0.6,0,1.1,0.1,1.5,0.3c0.4,0.2,0.8,0.5,1,0.8c0.3,0.3,0.5,0.7,0.6,1.2c0.1,0.4,0.2,0.9,0.2,1.3
				c0,0.4-0.1,0.9-0.2,1.3c-0.1,0.4-0.3,0.8-0.6,1.2c-0.3,0.3-0.6,0.6-1,0.9C18.2,15.7,17.7,15.8,17.1,15.8 M17.1,6.4
				c-0.8,0-1.6,0.1-2.3,0.4C14,7.1,13.4,7.5,12.9,8c-0.5,0.5-1,1.1-1.3,1.8c-0.3,0.7-0.5,1.5-0.5,2.4c0,0.9,0.2,1.7,0.5,2.4
				c0.3,0.7,0.7,1.3,1.3,1.8c0.5,0.5,1.2,0.9,1.9,1.2c0.7,0.3,1.5,0.4,2.3,0.4c0.8,0,1.6-0.1,2.3-0.4c0.7-0.3,1.4-0.7,1.9-1.2
				c0.5-0.5,1-1.1,1.3-1.8c0.3-0.7,0.5-1.5,0.5-2.4c0-0.9-0.2-1.7-0.5-2.4c-0.3-0.7-0.7-1.3-1.3-1.8c-0.5-0.5-1.2-0.9-1.9-1.2
				C18.7,6.5,17.9,6.4,17.1,6.4 M17.1,18.2c-0.8,0-1.6-0.2-2.4-0.4c-0.7-0.3-1.4-0.7-1.9-1.2c-0.5-0.5-1-1.2-1.3-1.9
				C11.1,13.9,11,13,11,12.1c0-0.9,0.2-1.7,0.5-2.4c0.3-0.7,0.8-1.4,1.3-1.9c0.5-0.5,1.2-0.9,2-1.2c0.7-0.3,1.6-0.4,2.4-0.4
				c0.8,0,1.6,0.1,2.4,0.4c0.7,0.3,1.4,0.7,2,1.2c0.5,0.5,1,1.1,1.3,1.9c0.3,0.7,0.5,1.5,0.5,2.4c0,0.9-0.2,1.7-0.5,2.4
				c-0.3,0.7-0.8,1.4-1.3,1.9c-0.5,0.5-1.2,0.9-1.9,1.2C18.8,18,18,18.2,17.1,18.2"/>
			<path class="st1" d="M34.7,17.8h-2.6V16h0c-0.2,0.6-0.7,1-1.3,1.5c-0.6,0.4-1.3,0.6-2.2,0.6c-0.7,0-1.3-0.1-1.9-0.4
				c-0.5-0.3-0.9-0.6-1.3-1c-0.3-0.4-0.6-0.9-0.7-1.4c-0.2-0.5-0.2-1.1-0.2-1.7v-7h2.8v6.2c0,0.3,0,0.7,0.1,1c0,0.4,0.1,0.7,0.3,1
				c0.2,0.3,0.4,0.5,0.6,0.7c0.3,0.2,0.6,0.3,1.1,0.3c0.4,0,0.8-0.1,1.1-0.3c0.3-0.2,0.6-0.4,0.8-0.7c0.2-0.3,0.4-0.6,0.5-1
				c0.1-0.4,0.2-0.7,0.2-1.1V6.6h2.8V17.8z"/>
			<path class="st1" d="M24.5,6.7v6.9c0,0.6,0.1,1.1,0.2,1.7c0.2,0.5,0.4,1,0.7,1.4c0.3,0.4,0.7,0.7,1.3,1c0.5,0.2,1.1,0.4,1.8,0.4
				c0.8,0,1.5-0.2,2.1-0.6c0.6-0.4,1-0.9,1.3-1.4l0,0h0.2v1.8h2.5v-11H32v6.1c0,0.4-0.1,0.8-0.2,1.1c-0.1,0.4-0.3,0.7-0.5,1
				c-0.2,0.3-0.5,0.5-0.8,0.7c-0.3,0.2-0.7,0.3-1.2,0.3c-0.5,0-0.8-0.1-1.1-0.3c-0.3-0.2-0.5-0.4-0.7-0.7c-0.2-0.3-0.3-0.6-0.3-1
				c0-0.4-0.1-0.7-0.1-1V6.7H24.5z M28.6,18.2c-0.7,0-1.4-0.1-1.9-0.4c-0.5-0.3-1-0.6-1.3-1c-0.3-0.4-0.6-0.9-0.7-1.5
				c-0.2-0.5-0.2-1.1-0.2-1.7v-7h2.9v6.2c0,0.3,0,0.7,0.1,1c0,0.3,0.1,0.7,0.3,0.9c0.1,0.3,0.4,0.5,0.6,0.7c0.3,0.2,0.6,0.3,1,0.3
				c0.4,0,0.8-0.1,1.1-0.3c0.3-0.2,0.6-0.4,0.8-0.7c0.2-0.3,0.4-0.6,0.5-0.9c0.1-0.4,0.2-0.7,0.2-1.1V6.6h2.9v11.3H32v-1.6
				c-0.3,0.5-0.7,0.9-1.2,1.3C30.1,17.9,29.4,18.2,28.6,18.2"/>
			<path class="st1" d="M36.4,6.6h2.7v1.9h0c0.3-0.6,0.7-1.2,1.3-1.6c0.6-0.4,1.2-0.6,1.9-0.6c0.1,0,0.2,0,0.3,0
				c0.1,0,0.2,0,0.3,0.1v2.6c-0.2,0-0.3-0.1-0.5-0.1c-0.1,0-0.3,0-0.4,0c-0.6,0-1.1,0.1-1.5,0.3C40.3,9.4,40,9.7,39.8,10
				c-0.2,0.3-0.4,0.7-0.4,1c-0.1,0.3-0.1,0.6-0.1,0.8v6h-2.8V6.6z"/>
			<path class="st1" d="M36.5,17.7h2.6v-5.9c0-0.2,0-0.5,0.1-0.8c0.1-0.3,0.2-0.7,0.5-1c0.2-0.3,0.5-0.6,0.9-0.9
				c0.4-0.2,0.9-0.4,1.6-0.4c0.1,0,0.3,0,0.4,0c0.1,0,0.2,0,0.4,0.1V6.4c-0.1,0-0.2,0-0.3,0c-0.1,0-0.2,0-0.3,0
				c-0.7,0-1.4,0.2-1.9,0.6c-0.5,0.4-1,0.9-1.3,1.6l0,0H39V6.7h-2.5V17.7z M39.3,17.8h-2.9V6.6h2.8v1.7c0.3-0.6,0.7-1.1,1.2-1.4
				c0.6-0.4,1.2-0.6,2-0.6c0.1,0,0.2,0,0.4,0c0.1,0,0.2,0,0.3,0.1l0.1,0V9L43,9c-0.2,0-0.3-0.1-0.5-0.1c-0.1,0-0.3,0-0.4,0
				c-0.6,0-1.1,0.1-1.5,0.3C40.3,9.4,40,9.7,39.8,10c-0.2,0.3-0.4,0.6-0.4,1c-0.1,0.3-0.1,0.6-0.1,0.8V17.8z"/>
			<path class="st1" d="M51.6,9.7c-0.2-0.3-0.5-0.6-1-0.8c-0.4-0.2-0.9-0.3-1.3-0.3c-0.5,0-1,0.1-1.3,0.3c-0.4,0.2-0.7,0.5-1,0.8
				c-0.3,0.3-0.4,0.7-0.6,1.1c-0.1,0.4-0.2,0.9-0.2,1.3c0,0.4,0.1,0.9,0.2,1.3c0.1,0.4,0.3,0.8,0.6,1.1c0.3,0.3,0.6,0.6,1,0.8
				c0.4,0.2,0.9,0.3,1.4,0.3c0.4,0,0.9-0.1,1.3-0.3c0.4-0.2,0.8-0.4,1-0.7l1.7,1.8c-0.5,0.5-1.1,0.9-1.8,1.1
				c-0.7,0.3-1.5,0.4-2.3,0.4c-0.8,0-1.6-0.1-2.3-0.4c-0.7-0.3-1.4-0.6-1.9-1.2c-0.5-0.5-1-1.1-1.3-1.9c-0.3-0.7-0.5-1.6-0.5-2.5
				c0-0.9,0.2-1.7,0.5-2.4c0.3-0.7,0.7-1.3,1.3-1.9C45.7,7.4,46.3,7,47,6.7c0.7-0.3,1.5-0.4,2.3-0.4c0.8,0,1.6,0.2,2.4,0.5
				c0.8,0.3,1.4,0.7,1.8,1.3L51.6,9.7z"/>
			<path class="st1" d="M49.3,6.4c-0.8,0-1.6,0.1-2.3,0.4c-0.7,0.3-1.3,0.7-1.9,1.2c-0.5,0.5-1,1.1-1.3,1.8
				c-0.3,0.7-0.5,1.5-0.5,2.4c0,0.9,0.2,1.7,0.5,2.5c0.3,0.7,0.7,1.3,1.3,1.8c0.5,0.5,1.2,0.9,1.9,1.1c0.7,0.3,1.5,0.4,2.3,0.4
				c0.8,0,1.6-0.1,2.3-0.4c0.7-0.3,1.3-0.6,1.7-1.1l-1.6-1.7c-0.3,0.3-0.6,0.5-1,0.7c-0.4,0.2-0.9,0.3-1.3,0.3c-0.5,0-1-0.1-1.4-0.3
				c-0.4-0.2-0.7-0.5-1-0.8c-0.3-0.3-0.5-0.7-0.6-1.2c-0.1-0.4-0.2-0.9-0.2-1.3c0-0.4,0.1-0.9,0.2-1.3c0.1-0.4,0.3-0.8,0.6-1.2
				c0.3-0.3,0.6-0.6,1-0.8c0.4-0.2,0.9-0.3,1.4-0.3c0.5,0,0.9,0.1,1.4,0.3c0.4,0.2,0.7,0.4,1,0.7L53.4,8c-0.4-0.5-1-0.9-1.7-1.2
				C50.9,6.5,50.1,6.4,49.3,6.4 M49.4,18.2c-0.8,0-1.6-0.1-2.4-0.4c-0.7-0.3-1.4-0.7-2-1.2c-0.6-0.5-1-1.1-1.3-1.9
				c-0.3-0.7-0.5-1.6-0.5-2.5c0-0.9,0.2-1.7,0.5-2.5c0.3-0.7,0.8-1.4,1.3-1.9c0.5-0.5,1.2-0.9,1.9-1.2c0.7-0.3,1.5-0.4,2.3-0.4
				c0.8,0,1.6,0.2,2.4,0.5C52.5,7,53.1,7.4,53.6,8l0,0.1l-2,1.8l0-0.1C51.4,9.5,51,9.2,50.6,9c-0.4-0.2-0.9-0.3-1.3-0.3
				c-0.5,0-0.9,0.1-1.3,0.3c-0.4,0.2-0.7,0.5-0.9,0.8c-0.2,0.3-0.4,0.7-0.6,1.1c-0.1,0.4-0.2,0.8-0.2,1.3c0,0.4,0.1,0.9,0.2,1.3
				c0.1,0.4,0.3,0.8,0.6,1.1c0.3,0.3,0.6,0.6,1,0.8c0.4,0.2,0.8,0.3,1.3,0.3c0.4,0,0.9-0.1,1.3-0.3c0.4-0.2,0.8-0.4,1-0.7l0.1-0.1
				l1.8,1.9l0,0.1c-0.5,0.5-1.1,0.9-1.8,1.2C51,18,50.2,18.2,49.4,18.2"/>
			<path class="st1" d="M62.3,11.1c0-0.4-0.1-0.7-0.2-1c-0.1-0.3-0.3-0.6-0.5-0.9c-0.2-0.2-0.5-0.4-0.8-0.6
				c-0.3-0.1-0.7-0.2-1.2-0.2c-0.8,0-1.5,0.3-2.1,0.8c-0.6,0.5-0.9,1.1-1,1.9H62.3z M65.1,12.3v0.4c0,0.1,0,0.2,0,0.4h-8.5
				c0,0.4,0.1,0.8,0.3,1.1c0.2,0.3,0.4,0.6,0.7,0.9c0.3,0.2,0.6,0.4,1,0.6c0.4,0.1,0.8,0.2,1.2,0.2c0.7,0,1.3-0.1,1.8-0.4
				c0.5-0.3,0.9-0.6,1.2-1.1l1.9,1.5c-1.1,1.5-2.7,2.2-4.8,2.2c-0.9,0-1.7-0.1-2.4-0.4c-0.7-0.3-1.4-0.7-1.9-1.1
				c-0.5-0.5-1-1.1-1.3-1.8c-0.3-0.7-0.5-1.5-0.5-2.4c0-0.9,0.2-1.7,0.5-2.4c0.3-0.7,0.7-1.4,1.2-1.9C56,7.4,56.7,7,57.4,6.7
				c0.7-0.3,1.5-0.4,2.3-0.4c0.8,0,1.5,0.1,2.1,0.4c0.7,0.3,1.2,0.6,1.7,1.1C64,8.3,64.4,9,64.7,9.7C65,10.5,65.1,11.3,65.1,12.3"/>
			<path class="st1" d="M56.7,11h5.6c0-0.3-0.1-0.6-0.1-0.9c-0.1-0.3-0.3-0.6-0.5-0.8c-0.2-0.2-0.5-0.4-0.8-0.6
				c-0.3-0.1-0.7-0.2-1.1-0.2c-0.8,0-1.5,0.2-2.1,0.7C57.1,9.7,56.8,10.3,56.7,11 M62.4,11.2h-5.9l0-0.1c0.1-0.8,0.4-1.5,1-2
				c0.6-0.5,1.3-0.8,2.2-0.8c0.5,0,0.9,0.1,1.2,0.2c0.3,0.2,0.6,0.4,0.8,0.6c0.2,0.3,0.4,0.6,0.5,0.9C62.3,10.4,62.4,10.7,62.4,11.2
				L62.4,11.2z M59.7,6.4c-0.8,0-1.6,0.1-2.3,0.4c-0.7,0.3-1.3,0.7-1.8,1.2c-0.5,0.5-0.9,1.1-1.2,1.9c-0.3,0.7-0.4,1.5-0.4,2.4
				c0,0.9,0.2,1.7,0.4,2.4c0.3,0.7,0.7,1.3,1.2,1.8c0.5,0.5,1.2,0.9,1.9,1.1c0.7,0.3,1.5,0.4,2.4,0.4c2,0,3.6-0.7,4.7-2.1l-1.7-1.4
				c-0.3,0.4-0.7,0.8-1.2,1c-0.5,0.3-1.1,0.4-1.8,0.4c-0.4,0-0.8-0.1-1.2-0.2c-0.4-0.1-0.7-0.3-1-0.6c-0.3-0.2-0.5-0.5-0.7-0.9
				c-0.2-0.3-0.3-0.7-0.3-1.1l0-0.1H65c0-0.1,0-0.2,0-0.3v-0.4c0-1-0.1-1.9-0.4-2.6C64.3,9,64,8.4,63.5,7.9c-0.5-0.5-1-0.9-1.7-1.1
				C61.2,6.5,60.5,6.4,59.7,6.4 M59.8,18.2c-0.9,0-1.7-0.1-2.4-0.4c-0.7-0.3-1.4-0.7-1.9-1.2c-0.5-0.5-1-1.1-1.3-1.8
				c-0.3-0.7-0.5-1.6-0.5-2.5c0-0.9,0.2-1.7,0.5-2.5c0.3-0.7,0.7-1.4,1.3-1.9C56,7.4,56.6,7,57.3,6.7c0.7-0.3,1.5-0.4,2.4-0.4
				c0.8,0,1.5,0.1,2.2,0.4c0.7,0.3,1.2,0.6,1.7,1.2c0.5,0.5,0.9,1.1,1.1,1.9c0.3,0.8,0.4,1.7,0.4,2.7v0.4c0,0.1,0,0.3,0,0.4l0,0.1
				h-8.5c0,0.4,0.1,0.7,0.3,1c0.2,0.3,0.4,0.6,0.7,0.8c0.3,0.2,0.6,0.4,1,0.6c0.4,0.1,0.7,0.2,1.1,0.2c0.7,0,1.3-0.1,1.7-0.4
				c0.5-0.2,0.9-0.6,1.2-1l0-0.1l2,1.6l0,0.1C63.5,17.4,61.9,18.2,59.8,18.2"/>
			<path class="st2" d="M83.4,0v7.9h-0.1c-0.1-0.2-0.3-0.4-0.5-0.6c-0.2-0.2-0.5-0.4-0.8-0.6c-0.3-0.2-0.7-0.3-1.1-0.4
				c-0.4-0.1-0.9-0.2-1.4-0.2c-0.8,0-1.5,0.2-2.2,0.5c-0.7,0.3-1.3,0.7-1.7,1.3c-0.5,0.5-0.9,1.2-1.1,1.9c-0.3,0.7-0.4,1.5-0.4,2.3
				c0,0.8,0.1,1.6,0.4,2.3c0.3,0.7,0.6,1.4,1.1,1.9c0.5,0.5,1.1,1,1.7,1.3c0.7,0.3,1.5,0.5,2.3,0.5c0.8,0,1.5-0.2,2.2-0.5
				c0.7-0.3,1.2-0.8,1.6-1.5h0v1.7h2.7V0H83.4z M78.8,15.4c-0.4-0.2-0.7-0.5-1-0.8c-0.3-0.3-0.5-0.7-0.6-1.2
				C77.1,13,77,12.5,77,12.1c0-0.4,0.1-0.9,0.2-1.3c0.1-0.4,0.3-0.8,0.6-1.2c0.3-0.3,0.6-0.6,1-0.8c0.4-0.2,0.9-0.3,1.4-0.3
				c0.5,0,1,0.1,1.4,0.3c0.4,0.2,0.8,0.5,1,0.8c0.3,0.3,0.5,0.7,0.7,1.2c0.1,0.4,0.2,0.9,0.2,1.3c0,0.4-0.1,0.9-0.2,1.3
				c-0.1,0.4-0.4,0.8-0.7,1.2c-0.3,0.3-0.6,0.6-1,0.8c-0.4,0.2-0.9,0.3-1.4,0.3C79.7,15.7,79.2,15.6,78.8,15.4z M89.2,0.6v2h1.3
				c0.5,0,0.7,0.1,0.9,0.4c0.1,0.3,0.2,0.6,0.2,1v4.4c0,0.5,0.1,0.8,0.3,1.2c0.2,0.3,0.4,0.6,0.6,0.8c0.2,0.2,0.5,0.4,0.8,0.5
				c0.3,0.1,0.5,0.2,0.7,0.2v0c-0.2,0-0.4,0.1-0.7,0.2c-0.3,0.1-0.5,0.2-0.8,0.4c-0.2,0.2-0.4,0.5-0.6,0.8c-0.2,0.3-0.3,0.8-0.3,1.3
				V18c0,0.3-0.1,0.7-0.2,1c-0.1,0.3-0.4,0.4-0.9,0.4h-1.3v2h1.7c0.4,0,0.8-0.1,1.1-0.2c0.4-0.1,0.7-0.3,1-0.6
				c0.3-0.3,0.5-0.6,0.7-1c0.2-0.4,0.2-0.8,0.2-1.4v-4.5c0-0.4,0.1-0.7,0.2-0.9c0.1-0.2,0.2-0.4,0.4-0.6c0.2-0.1,0.3-0.2,0.5-0.3
				c0.2,0,0.4-0.1,0.5-0.1V10c-0.2,0-0.4,0-0.5-0.1c-0.2,0-0.4-0.1-0.5-0.2c-0.2-0.1-0.3-0.3-0.4-0.5c-0.1-0.2-0.2-0.5-0.2-0.8V3.7
				c0-0.5-0.1-1-0.2-1.4c-0.2-0.4-0.4-0.7-0.7-1c-0.3-0.3-0.6-0.5-1-0.6c-0.4-0.1-0.7-0.2-1.1-0.2H89.2z M71.3,0.6
				c-0.4,0-0.8,0.1-1.1,0.2s-0.7,0.3-1,0.6c-0.3,0.3-0.5,0.6-0.7,1c-0.2,0.4-0.2,0.8-0.2,1.4v4.7c0,0.3-0.1,0.6-0.2,0.8
				c-0.1,0.2-0.2,0.4-0.4,0.5c-0.2,0.1-0.3,0.2-0.5,0.2c-0.2,0-0.4,0.1-0.5,0.1V12c0.2,0,0.3,0,0.5,0.1c0.2,0,0.4,0.1,0.5,0.3
				c0.2,0.1,0.3,0.3,0.4,0.6c0.1,0.2,0.2,0.5,0.2,0.9v4.5c0,0.5,0.1,1,0.2,1.4c0.2,0.4,0.4,0.7,0.7,1s0.6,0.5,1,0.6
				c0.4,0.1,0.7,0.2,1.1,0.2H73v-2h-1.3c-0.5,0-0.7-0.1-0.9-0.4c-0.1-0.3-0.2-0.6-0.2-1v-4.3c0-0.5-0.1-1-0.3-1.3
				c-0.2-0.3-0.4-0.6-0.6-0.8c-0.2-0.2-0.5-0.3-0.8-0.4c-0.3-0.1-0.5-0.1-0.7-0.2v0c0.2,0,0.4-0.1,0.7-0.2c0.3-0.1,0.5-0.3,0.8-0.5
				c0.2-0.2,0.4-0.5,0.6-0.8c0.2-0.3,0.3-0.7,0.3-1.2V3.9c0-0.3,0.1-0.7,0.2-1c0.1-0.3,0.4-0.4,0.9-0.4H73v-2H71.3z"/>
		</g>
	</g>
</g>
</svg>
