<?xml version="1.0" encoding="utf-8"?>
<!-- Generator: Adobe Illustrator 23.0.1, SVG Export Plug-In . SVG Version: 6.00 Build 0)  -->
<svg version="1.1" id="Layer_1" xmlns="http://www.w3.org/2000/svg" xmlns:xlink="http://www.w3.org/1999/xlink" x="0px" y="0px"
	 viewBox="0 0 481.2 32.3" style="enable-background:new 0 0 481.2 32.3;" xml:space="preserve">
<style type="text/css">
	.st0{fill:#FFFFFF;}
</style>
<g>
	<path class="st0" d="M25,24.4h-3.3L20.3,8.6l-5.7,15.8h-2.1L6.7,8.6L5.4,24.4H2.1l1.6-20h4.7l5.2,14.2l5.2-14.2h4.7L25,24.4z"/>
	<path class="st0" d="M32.5,24.7c-0.8,0-1.5-0.1-2.2-0.4c-0.6-0.2-1.2-0.7-1.6-1.3s-0.6-1.3-0.6-2.2c0-0.6,0.1-1.1,0.3-1.6
		c0.2-0.5,0.4-0.8,0.8-1.2c0.3-0.3,0.7-0.6,1.2-0.8c0.5-0.2,1-0.4,1.5-0.6c0.5-0.1,1.1-0.3,1.7-0.4l2.1-0.4c0.9-0.2,1.3-0.6,1.3-1.3
		c0-0.8-0.3-1.4-0.8-1.8c-0.5-0.4-1.2-0.6-2-0.6c-0.8,0-1.5,0.2-2,0.6c-0.5,0.4-0.9,1-1,1.9l-2.9-0.5c0.5-2.8,2.5-4.3,6.1-4.3
		c0.6,0,1.2,0,1.7,0.1c0.5,0.1,1,0.3,1.5,0.5c0.5,0.2,0.9,0.5,1.3,0.9c0.4,0.4,0.6,0.8,0.9,1.4c0.2,0.6,0.3,1.3,0.3,2v5.5
		c0,0.7,0.1,1.1,0.3,1.3c0.2,0.2,0.5,0.4,1,0.4h0.2v2.2h-1.5c-1.6,0-2.6-0.6-2.9-1.9h-0.2c-0.5,0.7-1.2,1.3-2,1.6
		C34.3,24.5,33.4,24.7,32.5,24.7z M33.3,22.1c1.1,0,2.1-0.4,2.8-1.2s1.1-1.8,1.1-3.1l-3.6,0.8c-0.8,0.1-1.4,0.4-1.7,0.7
		c-0.4,0.3-0.6,0.7-0.6,1.2c0,0.5,0.2,0.9,0.5,1.2C32.2,22,32.7,22.1,33.3,22.1z"/>
	<path class="st0" d="M50.6,24.6c-2.1,0-3.9-0.7-5.3-2c-1.4-1.4-2.1-3.1-2.1-5.3c0-2.2,0.7-3.9,2.1-5.3c1.4-1.3,3.1-2,5.3-2
		c1.7,0,3.1,0.4,4.3,1.3c1.2,0.9,2,2.1,2.4,3.6l-3,0.4c-0.3-0.9-0.7-1.6-1.4-2c-0.7-0.5-1.4-0.7-2.3-0.7c-1.2,0-2.2,0.4-2.9,1.3
		s-1.1,2-1.1,3.4c0,1.4,0.4,2.6,1.1,3.4s1.7,1.3,2.9,1.3c0.9,0,1.7-0.2,2.3-0.7c0.7-0.5,1.1-1.1,1.4-2l3,0.4
		c-0.4,1.6-1.2,2.8-2.4,3.6C53.7,24.2,52.3,24.6,50.6,24.6z"/>
	<path class="st0" d="M68.2,10c1.5,0,2.7,0.4,3.6,1.3c0.9,0.9,1.3,2.2,1.3,3.9v9.2h-3.3v-8.7c0-1.1-0.3-1.9-0.8-2.4
		c-0.5-0.5-1.2-0.7-2-0.7c-0.9,0-1.7,0.3-2.3,0.9c-0.6,0.6-0.9,1.5-1,2.8v8.1h-3.2V2.8h3.2V12c0.5-0.6,1.1-1.1,1.9-1.5
		S67.2,10,68.2,10z"/>
	<path class="st0" d="M79.1,7.6c-0.5,0-1-0.2-1.4-0.6c-0.4-0.4-0.6-0.9-0.6-1.4s0.2-1,0.6-1.4c0.4-0.4,0.9-0.6,1.4-0.6
		c0.5,0,1,0.2,1.4,0.6C80.8,4.6,81,5,81,5.6s-0.2,1-0.6,1.4S79.6,7.6,79.1,7.6z M77.4,24.4V10.3h3.2v14.1H77.4z"/>
	<path class="st0" d="M92.7,10c1.6,0,2.8,0.4,3.7,1.3c0.9,0.8,1.3,2.1,1.3,3.6v9.5h-3.3v-8.8c0-1-0.3-1.7-0.8-2.2
		c-0.5-0.5-1.2-0.7-2-0.7c-1,0-1.8,0.3-2.4,0.9c-0.6,0.6-0.9,1.5-0.9,2.7v8.1h-3.2V10.3h3.2v1.7c0.5-0.6,1.1-1.1,1.8-1.4
		S91.8,10,92.7,10z"/>
	<path class="st0" d="M114.9,17.1l0,0.8h-10.7c0.1,1.3,0.5,2.4,1.2,3.1c0.8,0.7,1.7,1.1,2.9,1.1c0.8,0,1.5-0.2,2.1-0.6
		c0.6-0.4,1.1-0.9,1.4-1.6l2.9,0.5c-0.5,1.4-1.3,2.4-2.4,3.2c-1.1,0.8-2.5,1.1-4,1.1c-2.2,0-4-0.7-5.3-2c-1.3-1.3-2-3.1-2-5.4
		c0-2.3,0.7-4.1,2-5.4c1.3-1.3,3.1-2,5.2-2c2,0,3.7,0.6,4.9,1.8S114.9,14.8,114.9,17.1z M108.2,12.4c-1,0-1.9,0.3-2.5,0.8
		c-0.7,0.5-1.1,1.3-1.3,2.3h7.4c-0.1-1-0.5-1.8-1.1-2.3C109.9,12.6,109.2,12.4,108.2,12.4z"/>
	<path class="st0" d="M129.8,21.4h6.6v3h-10v-20h3.4V21.4z"/>
	<path class="st0" d="M152.2,17.1l0,0.8h-10.7c0.1,1.3,0.5,2.4,1.2,3.1c0.8,0.7,1.7,1.1,2.9,1.1c0.8,0,1.5-0.2,2.1-0.6
		c0.6-0.4,1.1-0.9,1.4-1.6l2.9,0.5c-0.5,1.4-1.3,2.4-2.4,3.2c-1.1,0.8-2.5,1.1-4,1.1c-2.2,0-4-0.7-5.3-2c-1.3-1.3-2-3.1-2-5.4
		c0-2.3,0.7-4.1,2-5.4c1.3-1.3,3.1-2,5.2-2c2,0,3.7,0.6,4.9,1.8S152.2,14.8,152.2,17.1z M145.5,12.4c-1,0-1.9,0.3-2.5,0.8
		c-0.7,0.5-1.1,1.3-1.3,2.3h7.4c-0.1-1-0.5-1.8-1.1-2.3C147.2,12.6,146.4,12.4,145.5,12.4z"/>
	<path class="st0" d="M159,24.7c-0.8,0-1.5-0.1-2.2-0.4c-0.6-0.2-1.2-0.7-1.6-1.3s-0.6-1.3-0.6-2.2c0-0.6,0.1-1.1,0.3-1.6
		c0.2-0.5,0.4-0.8,0.8-1.2c0.3-0.3,0.7-0.6,1.2-0.8c0.5-0.2,1-0.4,1.5-0.6c0.5-0.1,1.1-0.3,1.7-0.4l2.1-0.4c0.9-0.2,1.3-0.6,1.3-1.3
		c0-0.8-0.3-1.4-0.8-1.8c-0.5-0.4-1.2-0.6-2-0.6c-0.8,0-1.5,0.2-2,0.6c-0.5,0.4-0.9,1-1,1.9l-2.9-0.5c0.5-2.8,2.5-4.3,6.1-4.3
		c0.6,0,1.2,0,1.7,0.1c0.5,0.1,1,0.3,1.5,0.5c0.5,0.2,0.9,0.5,1.3,0.9c0.4,0.4,0.6,0.8,0.9,1.4c0.2,0.6,0.3,1.3,0.3,2v5.5
		c0,0.7,0.1,1.1,0.3,1.3c0.2,0.2,0.5,0.4,1,0.4h0.2v2.2h-1.5c-1.6,0-2.6-0.6-2.9-1.9h-0.2c-0.5,0.7-1.2,1.3-2,1.6
		C160.8,24.5,159.9,24.7,159,24.7z M159.7,22.1c1.1,0,2.1-0.4,2.8-1.2s1.1-1.8,1.1-3.1l-3.6,0.8c-0.8,0.1-1.4,0.4-1.7,0.7
		c-0.4,0.3-0.6,0.7-0.6,1.2c0,0.5,0.2,0.9,0.5,1.2C158.7,22,159.2,22.1,159.7,22.1z"/>
	<path class="st0" d="M174.4,12.6c0.4-0.7,1-1.3,1.8-1.8c0.8-0.5,1.8-0.7,2.8-0.7v2.9c-1.5,0-2.6,0.3-3.3,0.9
		c-0.7,0.6-1.1,1.7-1.1,3.2v7.2h-3.2V10.3h3.1V12.6z"/>
	<path class="st0" d="M189.1,10c1.6,0,2.8,0.4,3.7,1.3c0.9,0.8,1.3,2.1,1.3,3.6v9.5h-3.3v-8.8c0-1-0.3-1.7-0.8-2.2
		c-0.5-0.5-1.2-0.7-2-0.7c-1,0-1.8,0.3-2.4,0.9c-0.6,0.6-0.9,1.5-0.9,2.7v8.1h-3.2V10.3h3.2v1.7c0.5-0.6,1.1-1.1,1.8-1.4
		S188.2,10,189.1,10z"/>
	<path class="st0" d="M200.1,7.6c-0.5,0-1-0.2-1.4-0.6c-0.4-0.4-0.6-0.9-0.6-1.4s0.2-1,0.6-1.4c0.4-0.4,0.9-0.6,1.4-0.6
		c0.5,0,1,0.2,1.4,0.6c0.4,0.4,0.6,0.9,0.6,1.4s-0.2,1-0.6,1.4S200.6,7.6,200.1,7.6z M198.4,24.4V10.3h3.2v14.1H198.4z"/>
	<path class="st0" d="M213.8,10c1.6,0,2.8,0.4,3.7,1.3c0.9,0.8,1.3,2.1,1.3,3.6v9.5h-3.3v-8.8c0-1-0.3-1.7-0.8-2.2
		c-0.5-0.5-1.2-0.7-2-0.7c-1,0-1.8,0.3-2.4,0.9c-0.6,0.6-0.9,1.5-0.9,2.7v8.1h-3.2V10.3h3.2v1.7c0.5-0.6,1.1-1.1,1.8-1.4
		S212.9,10,213.8,10z"/>
	<path class="st0" d="M233.1,10.3h3.1v13.2c0,2.5-0.6,4.4-1.9,5.7c-1.3,1.3-3,1.9-5.3,1.9c-3.6,0-5.9-1.5-7.1-4.4l2.7-1.2
		c0.4,1,1,1.7,1.7,2.2s1.6,0.7,2.6,0.7c1.3,0,2.3-0.4,3-1.2c0.7-0.8,1-2,1-3.5v-2.1c-0.4,0.7-1.1,1.3-1.9,1.7
		c-0.8,0.4-1.7,0.6-2.7,0.6c-1.8,0-3.3-0.7-4.6-2c-1.2-1.3-1.9-3-1.9-5c0-1,0.2-2,0.5-2.8c0.3-0.9,0.8-1.6,1.4-2.2
		c0.6-0.6,1.3-1.1,2.1-1.4c0.8-0.3,1.6-0.5,2.5-0.5c1,0,1.9,0.2,2.8,0.7s1.4,1.1,1.9,1.8L233.1,10.3z M229.2,21.3
		c1.2,0,2.1-0.4,2.9-1.3c0.8-0.8,1.2-1.9,1.2-3.1c0-1.2-0.4-2.2-1.2-3.1c-0.8-0.8-1.8-1.3-2.9-1.3c-1.2,0-2.1,0.4-2.9,1.2
		c-0.8,0.8-1.2,1.9-1.2,3.1c0,1.2,0.4,2.3,1.2,3.1S228,21.3,229.2,21.3z"/>
	<path class="st0" d="M255.5,5.4c-0.2,0-0.4,0-0.5,0s-0.3,0-0.5,0c-0.2,0-0.4,0-0.5,0.1c-0.1,0-0.2,0.1-0.4,0.1s-0.3,0.1-0.4,0.2
		c-0.1,0.1-0.2,0.2-0.3,0.3c-0.1,0.1-0.2,0.3-0.3,0.5c-0.1,0.2-0.1,0.4-0.2,0.6c0,0.2-0.1,0.5-0.1,0.8v2.2h3.1v2.5h-3.1v11.6h-3.2
		V12.8h-2.7v-2.5h2.7V8c0-0.6,0.1-1.2,0.2-1.7c0.1-0.5,0.3-0.9,0.4-1.3s0.4-0.7,0.7-0.9s0.6-0.5,1-0.6s0.7-0.3,1.2-0.4
		c0.5-0.1,0.9-0.2,1.4-0.2c0.4,0,1,0,1.5,0V5.4z"/>
	<path class="st0" d="M264.2,24.7c-2.2,0-4-0.7-5.4-2c-1.4-1.3-2.1-3.1-2.1-5.4c0-2.2,0.7-4,2.1-5.3c1.4-1.3,3.2-2,5.4-2
		c2.2,0,4,0.7,5.4,2s2.1,3.1,2.1,5.3c0,2.2-0.7,4-2.1,5.4C268.2,24,266.4,24.7,264.2,24.7z M264.2,22c1.2,0,2.3-0.4,3.1-1.3
		c0.8-0.9,1.2-2,1.2-3.4c0-1.4-0.4-2.6-1.2-3.4c-0.8-0.9-1.8-1.3-3.1-1.3c-1.2,0-2.2,0.4-3,1.3c-0.8,0.9-1.2,2-1.2,3.4
		c0,1.4,0.4,2.6,1.2,3.4C261.9,21.6,263,22,264.2,22z"/>
	<path class="st0" d="M278.2,12.6c0.4-0.7,1-1.3,1.8-1.8c0.8-0.5,1.8-0.7,2.8-0.7v2.9c-1.5,0-2.6,0.3-3.3,0.9
		c-0.7,0.6-1.1,1.7-1.1,3.2v7.2h-3.2V10.3h3.1V12.6z"/>
	<path class="st0" d="M302.1,24.7c-1.4,0-2.8-0.2-4-0.7c-1.2-0.5-2.3-1.2-3.2-2c-0.9-0.9-1.6-2-2.1-3.3s-0.8-2.7-0.8-4.3
		c0-2.1,0.4-3.9,1.3-5.5s2.1-2.8,3.6-3.6c1.5-0.8,3.2-1.2,5.2-1.2c2.1,0,4,0.5,5.6,1.5c1.6,1,2.8,2.4,3.6,4.2l-3.1,1.2
		c-0.5-1.2-1.3-2.1-2.4-2.8s-2.3-1-3.7-1c-0.9,0-1.8,0.2-2.7,0.5c-0.8,0.3-1.5,0.8-2.1,1.4c-0.6,0.6-1.1,1.4-1.4,2.3s-0.5,1.9-0.5,3
		c0,1.1,0.2,2.1,0.5,3c0.3,0.9,0.8,1.7,1.4,2.3c0.6,0.6,1.3,1.1,2.1,1.4c0.8,0.3,1.7,0.5,2.7,0.5c1.4,0,2.6-0.3,3.7-1
		s1.9-1.6,2.4-2.8l3.1,1.2c-0.7,1.8-1.9,3.2-3.6,4.2C306.1,24.2,304.2,24.7,302.1,24.7z"/>
	<path class="st0" d="M320.8,24.7c-2.2,0-4-0.7-5.4-2c-1.4-1.3-2.1-3.1-2.1-5.4c0-2.2,0.7-4,2.1-5.3c1.4-1.3,3.2-2,5.4-2
		c2.2,0,4,0.7,5.4,2s2.1,3.1,2.1,5.3c0,2.2-0.7,4-2.1,5.4C324.8,24,323,24.7,320.8,24.7z M320.8,22c1.2,0,2.3-0.4,3.1-1.3
		c0.8-0.9,1.2-2,1.2-3.4c0-1.4-0.4-2.6-1.2-3.4c-0.8-0.9-1.8-1.3-3.1-1.3c-1.2,0-2.2,0.4-3,1.3s-1.2,2-1.2,3.4
		c0,1.4,0.4,2.6,1.2,3.4C318.6,21.6,319.6,22,320.8,22z"/>
	<path class="st0" d="M341.9,2.8h3.2v21.6H342l-0.1-2.2c-0.4,0.8-1.1,1.4-1.9,1.9c-0.8,0.5-1.8,0.7-2.8,0.7c-0.9,0-1.8-0.2-2.6-0.5
		c-0.8-0.3-1.5-0.8-2.1-1.5c-0.6-0.6-1.1-1.4-1.4-2.3c-0.4-0.9-0.5-2-0.5-3.1c0-1.1,0.2-2.1,0.5-3c0.4-0.9,0.8-1.7,1.4-2.3
		c0.6-0.6,1.3-1.1,2.1-1.5c0.8-0.3,1.7-0.5,2.6-0.5c1,0,1.9,0.2,2.8,0.7c0.8,0.4,1.5,1,1.9,1.8V2.8z M335,20.7
		c0.8,0.9,1.8,1.3,3,1.3c1.2,0,2.2-0.4,3-1.3c0.8-0.9,1.2-2,1.2-3.3c0-1.3-0.4-2.4-1.2-3.3c-0.8-0.9-1.8-1.3-3-1.3
		c-1.2,0-2.2,0.4-3,1.3c-0.8,0.8-1.2,2-1.2,3.3S334.2,19.8,335,20.7z"/>
	<path class="st0" d="M362.5,17.1l0,0.8h-10.7c0.1,1.3,0.5,2.4,1.2,3.1c0.8,0.7,1.7,1.1,2.9,1.1c0.8,0,1.5-0.2,2.1-0.6
		c0.6-0.4,1.1-0.9,1.4-1.6l2.9,0.5c-0.5,1.4-1.3,2.4-2.4,3.2c-1.1,0.8-2.5,1.1-4,1.1c-2.2,0-4-0.7-5.3-2c-1.3-1.3-2-3.1-2-5.4
		c0-2.3,0.7-4.1,2-5.4s3.1-2,5.2-2c2,0,3.7,0.6,4.9,1.8C361.9,13,362.5,14.8,362.5,17.1z M355.8,12.4c-1,0-1.9,0.3-2.5,0.8
		c-0.7,0.5-1.1,1.3-1.3,2.3h7.4c-0.1-1-0.5-1.8-1.1-2.3C357.5,12.6,356.7,12.4,355.8,12.4z"/>
	<path class="st0" d="M387.2,24.4l-1.6-4.5h-8.7l-1.6,4.5h-3.5l7.4-20h4.1l7.4,20H387.2z M377.9,17.1h6.7l-3.4-9.5L377.9,17.1z"/>
	<path class="st0" d="M401.1,10c1.6,0,2.8,0.4,3.7,1.3c0.9,0.8,1.3,2.1,1.3,3.6v9.5h-3.3v-8.8c0-1-0.3-1.7-0.8-2.2
		c-0.5-0.5-1.2-0.7-2-0.7c-1,0-1.8,0.3-2.4,0.9s-0.9,1.5-0.9,2.7v8.1h-3.2V10.3h3.2v1.7c0.5-0.6,1.1-1.1,1.8-1.4
		C399.3,10.2,400.2,10,401.1,10z"/>
	<path class="st0" d="M413.8,24.7c-0.8,0-1.5-0.1-2.2-0.4s-1.2-0.7-1.6-1.3s-0.6-1.3-0.6-2.2c0-0.6,0.1-1.1,0.3-1.6
		c0.2-0.5,0.4-0.8,0.8-1.2c0.3-0.3,0.7-0.6,1.2-0.8s1-0.4,1.5-0.6c0.5-0.1,1.1-0.3,1.7-0.4l2.1-0.4c0.9-0.2,1.3-0.6,1.3-1.3
		c0-0.8-0.3-1.4-0.8-1.8c-0.5-0.4-1.2-0.6-2-0.6c-0.8,0-1.5,0.2-2,0.6c-0.5,0.4-0.9,1-1,1.9l-2.9-0.5c0.5-2.8,2.5-4.3,6.1-4.3
		c0.6,0,1.2,0,1.7,0.1c0.5,0.1,1,0.3,1.5,0.5c0.5,0.2,0.9,0.5,1.3,0.9c0.4,0.4,0.6,0.8,0.9,1.4c0.2,0.6,0.3,1.3,0.3,2v5.5
		c0,0.7,0.1,1.1,0.3,1.3c0.2,0.2,0.5,0.4,1,0.4h0.2v2.2h-1.5c-1.6,0-2.6-0.6-2.9-1.9h-0.2c-0.5,0.7-1.2,1.3-2,1.6
		C415.6,24.5,414.7,24.7,413.8,24.7z M414.5,22.1c1.1,0,2.1-0.4,2.8-1.2s1.1-1.8,1.1-3.1l-3.6,0.8c-0.8,0.1-1.4,0.4-1.7,0.7
		c-0.4,0.3-0.6,0.7-0.6,1.2c0,0.5,0.2,0.9,0.5,1.2C413.5,22,414,22.1,414.5,22.1z"/>
	<path class="st0" d="M426.1,24.4V2.8h3.3v21.6H426.1z"/>
	<path class="st0" d="M442.9,10.3h3.4L437.8,31h-3.3l3-7.1l-5.7-13.7h3.6l3.7,10.1L442.9,10.3z"/>
	<path class="st0" d="M453.2,24.7c-1.6,0-2.9-0.3-4-1c-1.1-0.7-1.7-1.6-1.9-2.9l2.7-0.8c0.2,0.8,0.6,1.4,1.1,1.8
		c0.6,0.4,1.2,0.6,2.1,0.6c0.7,0,1.2-0.1,1.7-0.4s0.7-0.7,0.7-1.4c0-0.3-0.1-0.5-0.2-0.7c-0.1-0.2-0.3-0.4-0.4-0.5s-0.4-0.3-0.7-0.4
		s-0.6-0.2-0.9-0.3c-0.3-0.1-0.6-0.2-1-0.3c-0.4-0.1-0.8-0.2-1.1-0.3c-0.5-0.2-1-0.3-1.3-0.5s-0.7-0.4-1.1-0.7
		c-0.4-0.3-0.7-0.7-0.8-1.1c-0.2-0.4-0.3-1-0.3-1.6c0-0.9,0.2-1.7,0.7-2.3c0.5-0.6,1.1-1.1,1.9-1.4c0.8-0.3,1.7-0.4,2.7-0.4
		c1.4,0,2.6,0.3,3.6,0.9c1,0.6,1.6,1.5,1.8,2.8l-2.6,0.6c-0.2-0.7-0.5-1.2-1-1.6s-1.1-0.5-1.8-0.5c-0.6,0-1.2,0.1-1.6,0.4
		c-0.4,0.3-0.7,0.7-0.7,1.2c0,0.1,0,0.3,0,0.4c0,0.1,0.1,0.2,0.2,0.3c0.1,0.1,0.2,0.2,0.3,0.3c0.1,0.1,0.2,0.2,0.4,0.2
		c0.2,0.1,0.3,0.2,0.4,0.2c0.1,0,0.3,0.1,0.5,0.2c0.2,0.1,0.4,0.1,0.5,0.2c0.1,0,0.3,0.1,0.6,0.2s0.5,0.1,0.6,0.1
		c0.5,0.1,1,0.3,1.3,0.4c0.4,0.1,0.8,0.3,1.2,0.5c0.4,0.2,0.8,0.5,1.1,0.8c0.3,0.3,0.5,0.7,0.7,1.1c0.2,0.5,0.3,1,0.3,1.6
		c0,0.8-0.1,1.4-0.4,2s-0.7,1-1.2,1.3s-1.1,0.6-1.7,0.7C454.7,24.6,454,24.7,453.2,24.7z"/>
	<path class="st0" d="M463.8,7.6c-0.5,0-1-0.2-1.4-0.6c-0.4-0.4-0.6-0.9-0.6-1.4s0.2-1,0.6-1.4c0.4-0.4,0.9-0.6,1.4-0.6
		c0.5,0,1,0.2,1.4,0.6c0.4,0.4,0.6,0.9,0.6,1.4s-0.2,1-0.6,1.4C464.8,7.4,464.3,7.6,463.8,7.6z M462.1,24.4V10.3h3.2v14.1H462.1z"/>
	<path class="st0" d="M474.6,24.7c-1.6,0-2.9-0.3-4-1c-1.1-0.7-1.7-1.6-1.9-2.9l2.7-0.8c0.2,0.8,0.6,1.4,1.1,1.8
		c0.6,0.4,1.2,0.6,2.1,0.6c0.7,0,1.2-0.1,1.7-0.4s0.7-0.7,0.7-1.4c0-0.3-0.1-0.5-0.2-0.7c-0.1-0.2-0.3-0.4-0.4-0.5s-0.4-0.3-0.7-0.4
		s-0.6-0.2-0.9-0.3c-0.3-0.1-0.6-0.2-1-0.3c-0.4-0.1-0.8-0.2-1.1-0.3c-0.5-0.2-1-0.3-1.3-0.5s-0.7-0.4-1.1-0.7
		c-0.4-0.3-0.7-0.7-0.8-1.1c-0.2-0.4-0.3-1-0.3-1.6c0-0.9,0.2-1.7,0.7-2.3c0.5-0.6,1.1-1.1,1.9-1.4c0.8-0.3,1.7-0.4,2.7-0.4
		c1.4,0,2.6,0.3,3.6,0.9c1,0.6,1.6,1.5,1.8,2.8l-2.6,0.6c-0.2-0.7-0.5-1.2-1-1.6s-1.1-0.5-1.8-0.5c-0.6,0-1.2,0.1-1.6,0.4
		c-0.4,0.3-0.7,0.7-0.7,1.2c0,0.1,0,0.3,0,0.4c0,0.1,0.1,0.2,0.2,0.3c0.1,0.1,0.2,0.2,0.3,0.3c0.1,0.1,0.2,0.2,0.4,0.2
		c0.2,0.1,0.3,0.2,0.4,0.2c0.1,0,0.3,0.1,0.5,0.2c0.2,0.1,0.4,0.1,0.5,0.2c0.1,0,0.3,0.1,0.6,0.2s0.5,0.1,0.6,0.1
		c0.5,0.1,1,0.3,1.3,0.4c0.4,0.1,0.8,0.3,1.2,0.5c0.4,0.2,0.8,0.5,1.1,0.8c0.3,0.3,0.5,0.7,0.7,1.1c0.2,0.5,0.3,1,0.3,1.6
		c0,0.8-0.1,1.4-0.4,2s-0.7,1-1.2,1.3s-1.1,0.6-1.7,0.7C476.1,24.6,475.4,24.7,474.6,24.7z"/>
</g>
</svg>
