<?xml version="1.0" encoding="utf-8"?>
<!-- Generator: Adobe Illustrator 23.0.1, SVG Export Plug-In . SVG Version: 6.00 Build 0)  -->
<svg version="1.1" id="Layer_1" xmlns="http://www.w3.org/2000/svg" xmlns:xlink="http://www.w3.org/1999/xlink" x="0px" y="0px"
	 viewBox="0 0 94 71" style="enable-background:new 0 0 94 71;" xml:space="preserve">
<style type="text/css">
	.st0{fill:#1B78B7;}
</style>
<g id="Layer-1_1_">
	<path class="st0" d="M54,0v25.7l0,0c0.4-0.7-0.3-1.3-0.9-2s-1.6-1.3-2.6-2c-1-0.7-2.3-1-3.6-1.3c-1.3-0.3-2.9-0.7-4.6-0.7
		c-2.6,0-4.9,0.7-7.2,1.6s-4.2,2.3-5.6,4.2c-1.6,1.6-2.9,3.9-3.6,6.2c-1,2.3-1.3,4.9-1.3,7.5c0,2.6,0.3,5.2,1.3,7.5s2,4.6,3.6,6.2
		c1.6,1.6,3.6,3.3,5.6,4.2c2.3,1,4.9,1.6,7.5,1.6s4.9-0.7,7.2-1.6c2.3-1,3.9-2.6,5.2-4.9l0,0V58h9V0H54z M39.7,50.3
		c-1.3-0.7-2.3-1.6-3.3-2.6c-1-1-1.6-2.3-2-3.9c-0.3-1.3-0.7-2.9-0.7-4.2s0.3-2.9,0.7-4.2c0.3-1.3,1-2.6,2-3.9c1-1,2-2,3.3-2.6
		c1.3-0.7,2.9-1,4.6-1c1.6,0,3.3,0.3,4.6,1c1.3,0.7,2.6,1.6,3.3,2.6c1,1,1.6,2.3,2.3,3.9c0.3,1.3,0.7,2.9,0.7,4.2
		c0,1.3-0.3,2.9-0.7,4.2c-0.3,1.3-1.3,2.6-2.3,3.9c-1,1-2,2-3.3,2.6c-1.3,0.7-2.9,1-4.6,1C42.6,51.2,41,50.9,39.7,50.3z M74,2v6h4.3
		c1.7,0,2.3,0.3,3,1.3c0.3,1,0.7,2,0.7,3.3v14.8c0,0-0.2,2.6,0.5,3.9c0.7,1,1.3,2,2,2.6c0.7,0.7,1.6,1.3,2.6,1.6
		c1,0.3,1.6,0.7,2.3,0.7l0,0c-0.7,0-1.3,0.3-2.3,0.7c-1,0.3-1.6,0.7-2.6,1.3c-0.7,0.7-1.3,1.6-2,2.6c-0.7,1-1,2.6-0.5,4.2v13.7
		c-0.5,1-0.8,2.3-1.1,3.3c-0.3,1-1.3,1.3-2.9,1H74v7h5.6c1.3,0,2.5-0.3,3.4-0.7c1.3-0.3,2.2-1,3.1-2c0.9-1,1.6-2,2.2-3.3
		c0.6-1.3,0.6-2.6,0.6-4.6V44.8c0-1.3,0.3-2.3,0.6-2.9c0.3-0.7,0.6-1.3,1.3-2c0.6-0.3,0.9-0.7,1.6-1c0.6,0,1.3-0.3,1.6-0.3v-5.9
		c-0.6,0-1.3,0-1.6-0.3c-0.6,0-1.3-0.3-1.6-0.7c-0.6-0.3-0.9-1-1.3-1.6c-0.3-0.7-0.6-1.6-0.6-2.6V11.9c0-1.6-0.3-3.2-0.6-4.5
		c-0.6-1.3-1.3-2.2-2.2-3.2c-1-1-1.9-1.6-3.2-1.9s-2.2-0.6-3.5-0.6L74,2L74,2z M15,1.3c-1.3,0-2.7,0.3-3.7,0.7C10,2.3,9,3,8,3.9
		s-1.7,2-2.3,3.3S5,9.8,5,11.8v16.4c0,1-0.3,2-0.6,2.6c-0.3,0.7-0.6,1.3-1.2,1.6c-0.6,0.3-0.9,0.7-1.6,0.7S0.3,33.4,0,33.4v6.2
		c0.6,0,0.9,0,1.6,0.3c0.6,0,1.2,0.3,1.6,1c0.6,0.3,0.9,1,1.2,2C4.7,43.6,5,44.5,5,45.8v14.7c0,1.6,0.3,3.3,0.6,4.6
		c0.6,1.3,1.2,2.3,2.2,3.3c0.9,1,1.9,1.6,3.1,2c1.2,0.3,2.2,0.7,3.4,0.7H21v-7h-4.3c-1.7,0-2.3-0.4-3-1.4c-0.3-1-0.7-2.1-0.7-3.5
		V45.4c0,0-0.4-3.3-1.1-4.2c-0.7-1-1.3-2-2-2.6c-0.7-0.7-1.6-1-2.6-1.3c-1-0.3-1.6-0.3-2.3-0.7l0,0c0.7,0,1.3-0.3,2.3-0.7
		c1-0.3,1.6-1,2.6-1.6c0.7-0.7,1.3-1.6,2-2.6c0.7-1,1-2.3,1.1-3.9v-15c-0.1-1,0.2-2.3,0.6-3.3s1.3-1.3,2.9-1.4H21V1h-6L15,1.3
		L15,1.3z"/>
</g>
</svg>
