<?xml version="1.0" encoding="utf-8"?>
<!-- Generator: Adobe Illustrator 22.1.0, SVG Export Plug-In . SVG Version: 6.00 Build 0)  -->
<svg version="1.1" id="Layer_1" xmlns="http://www.w3.org/2000/svg" xmlns:xlink="http://www.w3.org/1999/xlink" x="0px" y="0px"
	 viewBox="0 0 396.3 89.3" style="enable-background:new 0 0 396.3 89.3;" xml:space="preserve">
<style type="text/css">
	.st0{fill:none;}
	.st1{fill:#1B78B7;}
</style>
<g transform="matrix(1,0,0,1,0,-4687.5)">
	<g id="Page-4" transform="matrix(4.16667,0,0,4.16667,0,4687.5)">
		<rect x="-25.7" y="-61.8" class="st0" width="146.9" height="146.9"/>
		<g id="Layer-1">
			<path class="st1" d="M7.5,9.6C7.3,9.3,6.9,9,6.5,8.7C6.1,8.5,5.6,8.4,5.1,8.4c-0.4,0-0.9,0.1-1.2,0.3S3.3,9.2,3.3,9.6
				c0,0.4,0.2,0.7,0.6,0.9s1,0.4,1.8,0.5c0.4,0.1,0.8,0.2,1.3,0.4c0.4,0.2,0.8,0.4,1.2,0.6c0.3,0.3,0.6,0.6,0.8,1s0.3,0.8,0.3,1.4
				c0,0.7-0.1,1.3-0.4,1.7c-0.3,0.5-0.6,0.9-1,1.1c-0.4,0.3-0.9,0.5-1.5,0.6S5.3,18,4.6,18c-0.9,0-1.7-0.2-2.5-0.5s-1.5-0.8-2-1.4
				l1.8-1.7c0.3,0.4,0.7,0.7,1.2,1s1,0.4,1.6,0.4c0.2,0,0.4,0,0.6-0.1c0.2,0,0.4-0.1,0.6-0.2c0.2-0.1,0.3-0.2,0.4-0.4
				s0.2-0.4,0.2-0.6c0-0.5-0.2-0.8-0.6-1c-0.4-0.1-1-0.3-1.9-0.5c-0.4-0.1-0.8-0.2-1.2-0.4c-0.4-0.1-0.7-0.3-1.1-0.6
				c-0.3-0.2-0.6-0.5-0.7-0.9c-0.2-0.4-0.3-0.8-0.3-1.3c0-0.6,0.1-1.2,0.4-1.6c0.3-0.4,0.6-0.8,1-1.1C2.5,6.9,3,6.6,3.5,6.5
				s1.1-0.2,1.6-0.2c0.8,0,1.6,0.1,2.4,0.4S8.9,7.4,9.3,8L7.5,9.6z"/>
			<path class="st1" d="M6,13.5c0.5,0.2,0.7,0.6,0.7,1.1c0,0.3-0.1,0.5-0.2,0.7c-0.1,0.2-0.3,0.3-0.5,0.4c-0.2,0.1-0.4,0.2-0.6,0.2
				C5.2,16,5,16,4.8,16c-0.6,0-1.2-0.1-1.7-0.4c-0.5-0.3-0.9-0.6-1.2-1l-1.7,1.6c0.5,0.6,1.2,1,2,1.3C3,17.9,3.8,18,4.7,18
				c0.6,0,1.2-0.1,1.7-0.2c0.6-0.1,1-0.3,1.5-0.6c0.4-0.3,0.7-0.7,1-1.1c0.2-0.5,0.4-1,0.4-1.7c0-0.5-0.1-1-0.3-1.3
				c-0.2-0.4-0.5-0.7-0.8-0.9c-0.3-0.2-0.7-0.5-1.1-0.6c-0.4-0.2-0.8-0.3-1.3-0.4C5,11,4.4,10.8,4,10.7c-0.4-0.2-0.7-0.5-0.7-1
				s0.2-0.8,0.6-1s0.8-0.3,1.3-0.3s1,0.1,1.5,0.4c0.4,0.2,0.7,0.5,1,0.8L9.2,8c-0.4-0.5-1-0.9-1.7-1.2C6.7,6.5,6,6.4,5.2,6.4
				c-0.5,0-1.1,0.1-1.6,0.2C3,6.7,2.6,6.9,2.2,7.2c-0.4,0.3-0.7,0.6-1,1.1C1,8.7,0.8,9.3,0.8,9.9c0,0.5,0.1,0.9,0.3,1.3
				c0.2,0.3,0.4,0.6,0.7,0.9c0.3,0.2,0.7,0.4,1,0.6 M4.7,18.2c-0.9,0-1.7-0.2-2.6-0.5c-0.8-0.3-1.5-0.8-2.1-1.4v-0.1l1.9-1.8v0.1
				c0.3,0.4,0.7,0.7,1.2,1s1,0.4,1.6,0.4c0.2,0,0.4,0,0.6-0.1c0.2,0,0.4-0.1,0.6-0.2c0.2-0.1,0.3-0.2,0.4-0.4s0.2-0.4,0.2-0.6
				c0-0.4-0.2-0.7-0.6-0.9S4.8,13.3,4,13.1c-0.4-0.1-0.8-0.2-1.2-0.4c-0.4-0.1-0.8-0.3-1.1-0.6c-0.3-0.2-0.6-0.6-0.8-0.9
				c-0.2-0.4-0.3-0.8-0.3-1.4c0-0.6,0.1-1.2,0.4-1.6c0.3-0.5,0.6-0.8,1-1.1c0.5-0.3,1-0.5,1.5-0.7C4,6.3,4.6,6.2,5.2,6.2
				c0.8,0,1.6,0.1,2.4,0.4C8.3,6.9,8.9,7.4,9.4,8v0.1L7.5,9.7V9.6C7.2,9.3,6.9,9,6.5,8.8C6.1,8.6,5.6,8.5,5.1,8.5
				c-0.4,0-0.8,0.1-1.2,0.3C3.5,8.9,3.4,9.2,3.4,9.6c0,0.4,0.2,0.7,0.6,0.8c0.4,0.2,1,0.4,1.8,0.5c0.4,0.1,0.8,0.2,1.3,0.4
				c0.4,0.2,0.8,0.4,1.2,0.6c0.4,0.3,0.6,0.6,0.9,1c0.2,0.4,0.3,0.9,0.3,1.4c0,0.7-0.1,1.3-0.4,1.8c-0.3,0.5-0.6,0.9-1,1.2
				C7.5,17.6,7,17.8,6.4,18C5.9,18.1,5.3,18.2,4.7,18.2"/>
			<path class="st1" d="M13.5,12.1c0,0.4,0.1,0.9,0.2,1.3c0.1,0.4,0.3,0.8,0.6,1.2c0.3,0.3,0.6,0.6,1,0.8s0.9,0.3,1.4,0.3
				c0.6,0,1-0.1,1.4-0.3s0.7-0.5,1-0.8s0.5-0.7,0.6-1.2c0.1-0.4,0.2-0.9,0.2-1.3c0-0.4-0.1-0.9-0.2-1.3c-0.1-0.4-0.3-0.8-0.6-1.1
				c-0.3-0.3-0.6-0.6-1-0.8s-0.9-0.3-1.4-0.3c-0.6,0-1,0.1-1.4,0.3s-0.7,0.5-1,0.8s-0.5,0.7-0.6,1.1C13.5,11.3,13.5,11.7,13.5,12.1
				 M10.6,12.1c0-0.9,0.2-1.7,0.5-2.4s0.7-1.3,1.3-1.8c0.5-0.5,1.2-0.9,1.9-1.2s1.5-0.4,2.4-0.4c0.8,0,1.6,0.1,2.4,0.4
				C19.8,7,20.4,7.4,21,7.9c0.5,0.5,1,1.1,1.3,1.8s0.5,1.5,0.5,2.4c0,0.9-0.2,1.7-0.5,2.4s-0.7,1.3-1.3,1.9
				c-0.5,0.5-1.2,0.9-1.9,1.2c-0.7,0.3-1.5,0.4-2.4,0.4c-0.8,0-1.6-0.1-2.4-0.4c-0.7-0.3-1.4-0.7-1.9-1.2c-0.5-0.5-1-1.1-1.3-1.9
				C10.8,13.8,10.6,13,10.6,12.1"/>
			<path class="st1" d="M16.7,8.6c-0.5,0-1,0.1-1.4,0.3s-0.7,0.5-1,0.8s-0.5,0.7-0.6,1.1c-0.1,0.4-0.2,0.8-0.2,1.3
				c0,0.4,0.1,0.9,0.2,1.3c0.1,0.4,0.3,0.8,0.6,1.1s0.6,0.6,1,0.8s0.9,0.3,1.4,0.3s1-0.1,1.4-0.3s0.7-0.5,1-0.8s0.5-0.7,0.6-1.1
				c0.1-0.4,0.2-0.9,0.2-1.3c0-0.4-0.1-0.8-0.2-1.3c-0.1-0.4-0.3-0.8-0.6-1.1c-0.3-0.3-0.6-0.6-1-0.8C17.7,8.8,17.2,8.6,16.7,8.6
				 M16.7,15.8c-0.6,0-1.1-0.1-1.5-0.3s-0.8-0.5-1-0.9c-0.3-0.3-0.5-0.7-0.6-1.2c-0.1-0.4-0.2-0.9-0.2-1.3c0-0.4,0.1-0.9,0.2-1.3
				c0.1-0.4,0.3-0.8,0.6-1.2c0.3-0.3,0.6-0.6,1-0.8s0.9-0.3,1.5-0.3s1.1,0.1,1.5,0.3s0.8,0.5,1,0.8c0.3,0.3,0.5,0.7,0.6,1.2
				c0.1,0.4,0.2,0.9,0.2,1.3c0,0.4-0.1,0.9-0.2,1.3c-0.1,0.4-0.3,0.8-0.6,1.2c-0.3,0.3-0.6,0.6-1,0.9C17.8,15.7,17.3,15.8,16.7,15.8
				 M16.7,6.4c-0.8,0-1.6,0.1-2.3,0.4C13.6,7.1,13,7.5,12.5,8c-0.5,0.5-1,1.1-1.3,1.8s-0.5,1.5-0.5,2.4c0,0.9,0.2,1.7,0.5,2.4
				s0.7,1.3,1.3,1.8c0.5,0.5,1.2,0.9,1.9,1.2c0.7,0.3,1.5,0.4,2.3,0.4c0.8,0,1.6-0.1,2.3-0.4c0.7-0.3,1.4-0.7,1.9-1.2
				c0.5-0.5,1-1.1,1.3-1.8s0.5-1.5,0.5-2.4s-0.2-1.7-0.5-2.4S21.5,8.5,20.9,8c-0.5-0.5-1.2-0.9-1.9-1.2C18.3,6.5,17.5,6.4,16.7,6.4
				 M16.7,18.2c-0.8,0-1.6-0.2-2.4-0.4c-0.7-0.3-1.4-0.7-1.9-1.2c-0.5-0.5-1-1.2-1.3-1.9s-0.5-1.6-0.5-2.4c0-0.9,0.2-1.7,0.5-2.4
				s0.8-1.4,1.3-1.9c0.5-0.5,1.2-0.9,2-1.2c0.7-0.3,1.6-0.4,2.4-0.4s1.6,0.1,2.4,0.4c0.7,0.3,1.4,0.7,2,1.2c0.5,0.5,1,1.1,1.3,1.9
				c0.3,0.7,0.5,1.5,0.5,2.4s-0.2,1.7-0.5,2.4C22,15.3,21.6,16,21,16.5c-0.5,0.5-1.2,0.9-1.9,1.2C18.3,18,17.5,18.2,16.7,18.2"/>
			<path class="st1" d="M34.3,17.8h-2.6V16l0,0c-0.2,0.6-0.7,1-1.3,1.5c-0.6,0.4-1.3,0.6-2.2,0.6c-0.7,0-1.3-0.1-1.9-0.4
				c-0.5-0.3-0.9-0.6-1.3-1c-0.3-0.4-0.6-0.9-0.7-1.4c-0.2-0.5-0.2-1.1-0.2-1.7v-7h2.8v6.2c0,0.3,0,0.7,0.1,1c0,0.4,0.1,0.7,0.3,1
				c0.2,0.3,0.4,0.5,0.6,0.7c0.3,0.2,0.6,0.3,1.1,0.3c0.4,0,0.8-0.1,1.1-0.3c0.3-0.2,0.6-0.4,0.8-0.7c0.2-0.3,0.4-0.6,0.5-1
				s0.2-0.7,0.2-1.1V6.6h2.8L34.3,17.8L34.3,17.8z"/>
			<path class="st1" d="M24.1,6.7v6.9c0,0.6,0.1,1.1,0.2,1.7c0.2,0.5,0.4,1,0.7,1.4c0.3,0.4,0.7,0.7,1.3,1c0.5,0.2,1.1,0.4,1.8,0.4
				c0.8,0,1.5-0.2,2.1-0.6s1-0.9,1.3-1.4l0,0h0.2v1.8h2.5v-11h-2.6V13c0,0.4-0.1,0.8-0.2,1.1c-0.1,0.4-0.3,0.7-0.5,1
				s-0.5,0.5-0.8,0.7c-0.3,0.2-0.7,0.3-1.2,0.3s-0.8-0.1-1.1-0.3c-0.3-0.2-0.5-0.4-0.7-0.7s-0.3-0.6-0.3-1s-0.1-0.7-0.1-1V6.7H24.1z
				 M28.1,18.2c-0.7,0-1.4-0.1-1.9-0.4c-0.5-0.3-1-0.6-1.3-1s-0.6-0.9-0.7-1.5C24,14.7,24,14.2,24,13.6v-7h2.9v6.2
				c0,0.3,0,0.7,0.1,1c0,0.3,0.1,0.7,0.3,0.9c0.1,0.3,0.4,0.5,0.6,0.7c0.3,0.2,0.6,0.3,1,0.3s0.8-0.1,1.1-0.3
				c0.3-0.2,0.6-0.4,0.8-0.7c0.2-0.3,0.4-0.6,0.5-0.9c0.1-0.4,0.2-0.7,0.2-1.1V6.6h2.9v11.3h-2.8v-1.6c-0.3,0.5-0.7,0.9-1.2,1.3
				C29.7,17.9,29,18.2,28.1,18.2"/>
			<path class="st1" d="M36,6.6h2.7v1.9l0,0C39,7.8,39.5,7.3,40,6.9c0.6-0.4,1.2-0.6,1.9-0.6c0.1,0,0.2,0,0.3,0s0.2,0,0.3,0.1V9
				c-0.2,0-0.3-0.1-0.5-0.1c-0.1,0-0.3,0-0.4,0c-0.6,0-1.1,0.1-1.5,0.3s-0.7,0.5-0.9,0.8s-0.4,0.7-0.4,1c-0.1,0.3-0.1,0.6-0.1,0.8v6
				H36V6.6z"/>
			<path class="st1" d="M36.1,17.7h2.6v-5.9c0-0.2,0-0.5,0.1-0.8s0.2-0.7,0.5-1c0.2-0.3,0.5-0.6,0.9-0.9c0.4-0.2,0.9-0.4,1.6-0.4
				c0.1,0,0.3,0,0.4,0c0.1,0,0.2,0,0.4,0.1V6.4c-0.1,0-0.2,0-0.3,0s-0.2,0-0.3,0c-0.7,0-1.4,0.2-1.9,0.6s-1,0.9-1.3,1.6l0,0h-0.2
				V6.7h-2.5V17.7z M38.9,17.8H36V6.6h2.8v1.7c0.3-0.6,0.7-1.1,1.2-1.4c0.6-0.4,1.2-0.6,2-0.6c0.1,0,0.2,0,0.4,0
				c0.1,0,0.2,0,0.3,0.1h0.1V9h-0.1c-0.2,0-0.3-0.1-0.5-0.1c-0.1,0-0.3,0-0.4,0c-0.6,0-1.1,0.1-1.5,0.3s-0.7,0.5-0.9,0.8
				S39,10.6,39,11c-0.1,0.3-0.1,0.6-0.1,0.8V17.8L38.9,17.8z"/>
			<path class="st1" d="M51.2,9.7c-0.2-0.3-0.5-0.6-1-0.8c-0.4-0.2-0.9-0.3-1.3-0.3c-0.5,0-1,0.1-1.3,0.3c-0.4,0.2-0.7,0.5-1,0.8
				s-0.4,0.7-0.6,1.1c-0.1,0.4-0.2,0.9-0.2,1.3c0,0.4,0.1,0.9,0.2,1.3c0.1,0.4,0.3,0.8,0.6,1.1s0.6,0.6,1,0.8s0.9,0.3,1.4,0.3
				c0.4,0,0.9-0.1,1.3-0.3c0.4-0.2,0.8-0.4,1-0.7l1.7,1.8c-0.5,0.5-1.1,0.9-1.8,1.1c-0.7,0.3-1.5,0.4-2.3,0.4s-1.6-0.1-2.3-0.4
				s-1.4-0.6-1.9-1.2c-0.5-0.5-1-1.1-1.3-1.9c-0.3-0.7-0.5-1.6-0.5-2.5s0.2-1.7,0.5-2.4s0.7-1.3,1.3-1.9c0.5-0.5,1.2-0.9,1.9-1.2
				C47.3,6.1,48.1,6,48.9,6s1.6,0.2,2.4,0.5c0.8,0.3,1.4,0.7,1.8,1.3L51.2,9.7z"/>
			<path class="st1" d="M48.9,6.4c-0.8,0-1.6,0.1-2.3,0.4S45.3,7.5,44.7,8c-0.5,0.5-1,1.1-1.3,1.8s-0.5,1.5-0.5,2.4
				c0,0.9,0.2,1.7,0.5,2.5c0.3,0.7,0.7,1.3,1.3,1.8c0.5,0.5,1.2,0.9,1.9,1.1c0.7,0.3,1.5,0.4,2.3,0.4s1.6-0.1,2.3-0.4
				c0.7-0.3,1.3-0.6,1.7-1.1l-1.6-1.7c-0.3,0.3-0.6,0.5-1,0.7s-0.9,0.3-1.3,0.3c-0.5,0-1-0.1-1.4-0.3s-0.7-0.5-1-0.8
				S46.1,14,46,13.5c-0.1-0.4-0.2-0.9-0.2-1.3c0-0.4,0.1-0.9,0.2-1.3c0.1-0.4,0.3-0.8,0.6-1.2c0.3-0.3,0.6-0.6,1-0.8
				s0.9-0.3,1.4-0.3s0.9,0.1,1.4,0.3c0.4,0.2,0.7,0.4,1,0.7L53,8c-0.4-0.5-1-0.9-1.7-1.2C50.5,6.5,49.7,6.4,48.9,6.4 M49,18.2
				c-0.8,0-1.6-0.1-2.4-0.4c-0.7-0.3-1.4-0.7-2-1.2s-1-1.1-1.3-1.9c-0.3-0.7-0.5-1.6-0.5-2.5s0.2-1.7,0.5-2.5
				c0.3-0.7,0.8-1.4,1.3-1.9s1.2-0.9,1.9-1.2s1.5-0.4,2.3-0.4s1.6,0.2,2.4,0.5c0.9,0.3,1.5,0.7,2,1.3v0.1l-2,1.8V9.8
				C51,9.5,50.7,9.2,50.3,9S49.4,8.7,49,8.7c-0.5,0-0.9,0.1-1.3,0.3c-0.4,0.2-0.7,0.5-0.9,0.8s-0.4,0.7-0.6,1.1
				c-0.1,0.4-0.2,0.8-0.2,1.3c0,0.4,0.1,0.9,0.2,1.3c0.1,0.4,0.3,0.8,0.6,1.1s0.6,0.6,1,0.8s0.8,0.3,1.3,0.3c0.4,0,0.9-0.1,1.3-0.3
				c0.4-0.2,0.8-0.4,1-0.7l0.1-0.1l1.8,1.9v0.1c-0.5,0.5-1.1,0.9-1.8,1.2C50.6,18,49.8,18.2,49,18.2"/>
			<path class="st1" d="M61.9,11.1c0-0.4-0.1-0.7-0.2-1c-0.1-0.3-0.3-0.6-0.5-0.9C61,9,60.8,8.8,60.4,8.6c-0.3-0.1-0.7-0.2-1.2-0.2
				c-0.8,0-1.5,0.3-2.1,0.8s-0.9,1.1-1,1.9H61.9z M64.7,12.3v0.4c0,0.1,0,0.2,0,0.4h-8.5c0,0.4,0.1,0.8,0.3,1.1s0.4,0.6,0.7,0.9
				c0.3,0.2,0.6,0.4,1,0.6c0.4,0.1,0.8,0.2,1.2,0.2c0.7,0,1.3-0.1,1.8-0.4c0.5-0.3,0.9-0.6,1.2-1.1l1.9,1.5
				c-1.1,1.5-2.7,2.2-4.8,2.2c-0.9,0-1.7-0.1-2.4-0.4s-1.4-0.7-1.9-1.1c-0.5-0.5-1-1.1-1.3-1.8s-0.5-1.5-0.5-2.4s0.2-1.7,0.5-2.4
				s0.7-1.4,1.2-1.9C55.6,7.4,56.2,7,57,6.7c0.7-0.3,1.5-0.4,2.3-0.4s1.5,0.1,2.1,0.4c0.7,0.3,1.2,0.6,1.7,1.1S64,9,64.3,9.7
				C64.5,10.5,64.7,11.3,64.7,12.3"/>
			<path class="st1" d="M56.3,11h5.6c0-0.3-0.1-0.6-0.1-0.9c-0.1-0.3-0.3-0.6-0.5-0.8C61,9,60.7,8.8,60.4,8.7s-0.7-0.2-1.1-0.2
				c-0.8,0-1.5,0.2-2.1,0.7C56.6,9.7,56.3,10.3,56.3,11 M62,11.2h-5.9v-0.1c0.1-0.8,0.4-1.5,1-2s1.3-0.8,2.2-0.8
				c0.5,0,0.9,0.1,1.2,0.2c0.3,0.2,0.6,0.4,0.8,0.6c0.2,0.3,0.4,0.6,0.5,0.9C61.9,10.4,62,10.7,62,11.2L62,11.2z M59.3,6.4
				c-0.8,0-1.6,0.1-2.3,0.4S55.7,7.5,55.2,8c-0.5,0.5-0.9,1.1-1.2,1.9c-0.3,0.7-0.4,1.5-0.4,2.4s0.2,1.7,0.4,2.4
				c0.3,0.7,0.7,1.3,1.2,1.8c0.5,0.5,1.2,0.9,1.9,1.1c0.7,0.3,1.5,0.4,2.4,0.4c2,0,3.6-0.7,4.7-2.1l-1.7-1.4c-0.3,0.4-0.7,0.8-1.2,1
				c-0.5,0.3-1.1,0.4-1.8,0.4c-0.4,0-0.8-0.1-1.2-0.2c-0.4-0.1-0.7-0.3-1-0.6c-0.3-0.2-0.5-0.5-0.7-0.9c-0.2-0.3-0.3-0.7-0.3-1.1V13
				h8.5c0-0.1,0-0.2,0-0.3v-0.4c0-1-0.1-1.9-0.4-2.6s-0.6-1.4-1.1-1.9s-1-0.9-1.7-1.1C60.8,6.5,60,6.4,59.3,6.4 M59.4,18.2
				c-0.9,0-1.7-0.1-2.4-0.4s-1.4-0.7-1.9-1.2s-1-1.1-1.3-1.8s-0.5-1.6-0.5-2.5s0.2-1.7,0.5-2.5s0.7-1.4,1.2-1.9s1.2-0.9,1.9-1.2
				s1.5-0.4,2.4-0.4c0.8,0,1.5,0.1,2.2,0.4s1.2,0.6,1.7,1.2c0.5,0.5,0.9,1.1,1.1,1.9c0.3,0.8,0.4,1.7,0.4,2.7v0.4c0,0.1,0,0.3,0,0.4
				v0.1h-8.5c0,0.4,0.1,0.7,0.3,1s0.4,0.6,0.7,0.8s0.6,0.4,1,0.6c0.4,0.1,0.7,0.2,1.1,0.2c0.7,0,1.3-0.1,1.7-0.4
				c0.5-0.2,0.9-0.6,1.2-1v-0.1l2,1.6v0.1C63.1,17.4,61.5,18.2,59.4,18.2"/>
			<path class="st1" d="M83,0v7.9l0,0c-0.1-0.2-0.3-0.4-0.5-0.6S82,6.9,81.7,6.7S81,6.4,80.6,6.3s-0.9-0.2-1.4-0.2
				c-0.8,0-1.5,0.2-2.2,0.5s-1.3,0.7-1.7,1.3c-0.5,0.5-0.9,1.2-1.1,1.9c-0.3,0.7-0.4,1.5-0.4,2.3s0.1,1.6,0.4,2.3s0.6,1.4,1.1,1.9
				c0.5,0.5,1.1,1,1.7,1.3c0.7,0.3,1.5,0.5,2.3,0.5s1.5-0.2,2.2-0.5s1.2-0.8,1.6-1.5l0,0v1.7h2.7V0H83z M78.4,15.4
				c-0.4-0.2-0.7-0.5-1-0.8s-0.5-0.7-0.6-1.2c-0.1-0.4-0.2-0.9-0.2-1.3c0-0.4,0.1-0.9,0.2-1.3c0.1-0.4,0.3-0.8,0.6-1.2
				c0.3-0.3,0.6-0.6,1-0.8s0.9-0.3,1.4-0.3s1,0.1,1.4,0.3s0.8,0.5,1,0.8c0.3,0.3,0.5,0.7,0.7,1.2c0.1,0.4,0.2,0.9,0.2,1.3
				c0,0.4-0.1,0.9-0.2,1.3c-0.1,0.4-0.4,0.8-0.7,1.2c-0.3,0.3-0.6,0.6-1,0.8s-0.9,0.3-1.4,0.3S78.8,15.6,78.4,15.4z M88.8,0.6v2h1.3
				c0.5,0,0.7,0.1,0.9,0.4c0.1,0.3,0.2,0.6,0.2,1v4.4c0,0.5,0.1,0.8,0.3,1.2c0.2,0.3,0.4,0.6,0.6,0.8s0.5,0.4,0.8,0.5
				s0.5,0.2,0.7,0.2l0,0c-0.2,0-0.4,0.1-0.7,0.2c-0.3,0.1-0.5,0.2-0.8,0.4c-0.2,0.2-0.4,0.5-0.6,0.8s-0.3,0.8-0.3,1.3V18
				c0,0.3-0.1,0.7-0.2,1s-0.4,0.4-0.9,0.4h-1.3v2h1.7c0.4,0,0.8-0.1,1.1-0.2c0.4-0.1,0.7-0.3,1-0.6c0.3-0.3,0.5-0.6,0.7-1
				s0.2-0.8,0.2-1.4v-4.5c0-0.4,0.1-0.7,0.2-0.9s0.2-0.4,0.4-0.6c0.2-0.1,0.3-0.2,0.5-0.3c0.2,0,0.4-0.1,0.5-0.1V10
				c-0.2,0-0.4,0-0.5-0.1c-0.2,0-0.4-0.1-0.5-0.2c-0.2-0.1-0.3-0.3-0.4-0.5s-0.2-0.5-0.2-0.8V3.7c0-0.5-0.1-1-0.2-1.4
				c-0.2-0.4-0.4-0.7-0.7-1c-0.3-0.3-0.6-0.5-1-0.6s-0.7-0.2-1.1-0.2L88.8,0.6L88.8,0.6z M70.9,0.6c-0.4,0-0.8,0.1-1.1,0.2
				c-0.4,0.1-0.7,0.3-1,0.6s-0.5,0.6-0.7,1s-0.2,0.8-0.2,1.4v4.7c0,0.3-0.1,0.6-0.2,0.8s-0.2,0.4-0.4,0.5C67.1,9.9,67,10,66.8,10
				s-0.4,0.1-0.5,0.1V12c0.2,0,0.3,0,0.5,0.1c0.2,0,0.4,0.1,0.5,0.3c0.2,0.1,0.3,0.3,0.4,0.6c0.1,0.2,0.2,0.5,0.2,0.9v4.5
				c0,0.5,0.1,1,0.2,1.4c0.2,0.4,0.4,0.7,0.7,1c0.3,0.3,0.6,0.5,1,0.6s0.7,0.2,1.1,0.2h1.7v-2h-1.3c-0.5,0-0.7-0.1-0.9-0.4
				c-0.1-0.3-0.2-0.6-0.2-1v-4.3c0-0.5-0.1-1-0.3-1.3c-0.2-0.3-0.4-0.6-0.6-0.8s-0.5-0.3-0.8-0.4c-0.3-0.1-0.5-0.1-0.7-0.2l0,0
				c0.2,0,0.4-0.1,0.7-0.2c0.3-0.1,0.5-0.3,0.8-0.5c0.2-0.2,0.4-0.5,0.6-0.8s0.3-0.7,0.3-1.2V3.9c0-0.3,0.1-0.7,0.2-1
				s0.4-0.4,0.9-0.4h1.3v-2h-1.7L70.9,0.6L70.9,0.6z"/>
		</g>
	</g>
</g>
</svg>
